<svg version="1.1" xmlns="http://www.w3.org/2000/svg" xmlns:xlink="http://www.w3.org/1999/xlink" width="1200" height="800"><defs/><g transform="scale(2,2)"><g id="background-5d715601"><rect fill="white" stroke="none" x="0" y="0" width="600" height="400" class="dcg-svg-background"/></g><g id="graphpaper-5d715601"><g id="grid-5d715601"><g><path fill="none" stroke="rgb(0,0,0)" class="dcg-svg-minor-gridline" paint-order="fill stroke markers" d=" M 1.5 0 L 1.5 400" stroke-opacity="0.2" stroke-miterlimit="10" stroke-dasharray=""/><path fill="none" stroke="rgb(0,0,0)" class="dcg-svg-minor-gridline" paint-order="fill stroke markers" d=" M 41.5 0 L 41.5 400" stroke-opacity="0.2" stroke-miterlimit="10" stroke-dasharray=""/><path fill="none" stroke="rgb(0,0,0)" class="dcg-svg-minor-gridline" paint-order="fill stroke markers" d=" M 121.5 0 L 121.5 400" stroke-opacity="0.2" stroke-miterlimit="10" stroke-dasharray=""/><path fill="none" stroke="rgb(0,0,0)" class="dcg-svg-minor-gridline" paint-order="fill stroke markers" d=" M 161.5 0 L 161.5 400" stroke-opacity="0.2" stroke-miterlimit="10" stroke-dasharray=""/><path fill="none" stroke="rgb(0,0,0)" class="dcg-svg-minor-gridline" paint-order="fill stroke markers" d=" M 201.5 0 L 201.5 400" stroke-opacity="0.2" stroke-miterlimit="10" stroke-dasharray=""/><path fill="none" stroke="rgb(0,0,0)" class="dcg-svg-minor-gridline" paint-order="fill stroke markers" d=" M 241.5 0 L 241.5 400" stroke-opacity="0.2" stroke-miterlimit="10" stroke-dasharray=""/><path fill="none" stroke="rgb(0,0,0)" class="dcg-svg-minor-gridline" paint-order="fill stroke markers" d=" M 281.5 0 L 281.5 400" stroke-opacity="0.2" stroke-miterlimit="10" stroke-dasharray=""/><path fill="none" stroke="rgb(0,0,0)" class="dcg-svg-minor-gridline" paint-order="fill stroke markers" d=" M 320.5 0 L 320.5 400" stroke-opacity="0.2" stroke-miterlimit="10" stroke-dasharray=""/><path fill="none" stroke="rgb(0,0,0)" class="dcg-svg-minor-gridline" paint-order="fill stroke markers" d=" M 360.5 0 L 360.5 400" stroke-opacity="0.2" stroke-miterlimit="10" stroke-dasharray=""/><path fill="none" stroke="rgb(0,0,0)" class="dcg-svg-minor-gridline" paint-order="fill stroke markers" d=" M 400.5 0 L 400.5 400" stroke-opacity="0.2" stroke-miterlimit="10" stroke-dasharray=""/><path fill="none" stroke="rgb(0,0,0)" class="dcg-svg-minor-gridline" paint-order="fill stroke markers" d=" M 440.5 0 L 440.5 400" stroke-opacity="0.2" stroke-miterlimit="10" stroke-dasharray=""/><path fill="none" stroke="rgb(0,0,0)" class="dcg-svg-minor-gridline" paint-order="fill stroke markers" d=" M 480.5 0 L 480.5 400" stroke-opacity="0.2" stroke-miterlimit="10" stroke-dasharray=""/><path fill="none" stroke="rgb(0,0,0)" class="dcg-svg-minor-gridline" paint-order="fill stroke markers" d=" M 520.5 0 L 520.5 400" stroke-opacity="0.2" stroke-miterlimit="10" stroke-dasharray=""/><path fill="none" stroke="rgb(0,0,0)" class="dcg-svg-minor-gridline" paint-order="fill stroke markers" d=" M 560.5 0 L 560.5 400" stroke-opacity="0.2" stroke-miterlimit="10" stroke-dasharray=""/><path fill="none" stroke="rgb(0,0,0)" class="dcg-svg-minor-gridline" paint-order="fill stroke markers" d=" M 0 392.5 L 600 392.5" stroke-opacity="0.2" stroke-miterlimit="10" stroke-dasharray=""/><path fill="none" stroke="rgb(0,0,0)" class="dcg-svg-minor-gridline" paint-order="fill stroke markers" d=" M 0 384.5 L 600 384.5" stroke-opacity="0.2" stroke-miterlimit="10" stroke-dasharray=""/><path fill="none" stroke="rgb(0,0,0)" class="dcg-svg-minor-gridline" paint-order="fill stroke markers" d=" M 0 376.5 L 600 376.5" stroke-opacity="0.2" stroke-miterlimit="10" stroke-dasharray=""/><path fill="none" stroke="rgb(0,0,0)" class="dcg-svg-minor-gridline" paint-order="fill stroke markers" d=" M 0 368.5 L 600 368.5" stroke-opacity="0.2" stroke-miterlimit="10" stroke-dasharray=""/><path fill="none" stroke="rgb(0,0,0)" class="dcg-svg-minor-gridline" paint-order="fill stroke markers" d=" M 0 360.5 L 600 360.5" stroke-opacity="0.2" stroke-miterlimit="10" stroke-dasharray=""/><path fill="none" stroke="rgb(0,0,0)" class="dcg-svg-minor-gridline" paint-order="fill stroke markers" d=" M 0 352.5 L 600 352.5" stroke-opacity="0.2" stroke-miterlimit="10" stroke-dasharray=""/><path fill="none" stroke="rgb(0,0,0)" class="dcg-svg-minor-gridline" paint-order="fill stroke markers" d=" M 0 344.5 L 600 344.5" stroke-opacity="0.2" stroke-miterlimit="10" stroke-dasharray=""/><path fill="none" stroke="rgb(0,0,0)" class="dcg-svg-minor-gridline" paint-order="fill stroke markers" d=" M 0 336.5 L 600 336.5" stroke-opacity="0.2" stroke-miterlimit="10" stroke-dasharray=""/><path fill="none" stroke="rgb(0,0,0)" class="dcg-svg-minor-gridline" paint-order="fill stroke markers" d=" M 0 328.5 L 600 328.5" stroke-opacity="0.2" stroke-miterlimit="10" stroke-dasharray=""/><path fill="none" stroke="rgb(0,0,0)" class="dcg-svg-minor-gridline" paint-order="fill stroke markers" d=" M 0 320.5 L 600 320.5" stroke-opacity="0.2" stroke-miterlimit="10" stroke-dasharray=""/><path fill="none" stroke="rgb(0,0,0)" class="dcg-svg-minor-gridline" paint-order="fill stroke markers" d=" M 0 312.5 L 600 312.5" stroke-opacity="0.2" stroke-miterlimit="10" stroke-dasharray=""/><path fill="none" stroke="rgb(0,0,0)" class="dcg-svg-minor-gridline" paint-order="fill stroke markers" d=" M 0 304.5 L 600 304.5" stroke-opacity="0.2" stroke-miterlimit="10" stroke-dasharray=""/><path fill="none" stroke="rgb(0,0,0)" class="dcg-svg-minor-gridline" paint-order="fill stroke markers" d=" M 0 296.5 L 600 296.5" stroke-opacity="0.2" stroke-miterlimit="10" stroke-dasharray=""/><path fill="none" stroke="rgb(0,0,0)" class="dcg-svg-minor-gridline" paint-order="fill stroke markers" d=" M 0 288.5 L 600 288.5" stroke-opacity="0.2" stroke-miterlimit="10" stroke-dasharray=""/><path fill="none" stroke="rgb(0,0,0)" class="dcg-svg-minor-gridline" paint-order="fill stroke markers" d=" M 0 280.5 L 600 280.5" stroke-opacity="0.2" stroke-miterlimit="10" stroke-dasharray=""/><path fill="none" stroke="rgb(0,0,0)" class="dcg-svg-minor-gridline" paint-order="fill stroke markers" d=" M 0 272.5 L 600 272.5" stroke-opacity="0.2" stroke-miterlimit="10" stroke-dasharray=""/><path fill="none" stroke="rgb(0,0,0)" class="dcg-svg-minor-gridline" paint-order="fill stroke markers" d=" M 0 264.5 L 600 264.5" stroke-opacity="0.2" stroke-miterlimit="10" stroke-dasharray=""/><path fill="none" stroke="rgb(0,0,0)" class="dcg-svg-minor-gridline" paint-order="fill stroke markers" d=" M 0 256.5 L 600 256.5" stroke-opacity="0.2" stroke-miterlimit="10" stroke-dasharray=""/><path fill="none" stroke="rgb(0,0,0)" class="dcg-svg-minor-gridline" paint-order="fill stroke markers" d=" M 0 248.5 L 600 248.5" stroke-opacity="0.2" stroke-miterlimit="10" stroke-dasharray=""/><path fill="none" stroke="rgb(0,0,0)" class="dcg-svg-minor-gridline" paint-order="fill stroke markers" d=" M 0 240.5 L 600 240.5" stroke-opacity="0.2" stroke-miterlimit="10" stroke-dasharray=""/><path fill="none" stroke="rgb(0,0,0)" class="dcg-svg-minor-gridline" paint-order="fill stroke markers" d=" M 0 232.5 L 600 232.5" stroke-opacity="0.2" stroke-miterlimit="10" stroke-dasharray=""/><path fill="none" stroke="rgb(0,0,0)" class="dcg-svg-minor-gridline" paint-order="fill stroke markers" d=" M 0 224.5 L 600 224.5" stroke-opacity="0.2" stroke-miterlimit="10" stroke-dasharray=""/><path fill="none" stroke="rgb(0,0,0)" class="dcg-svg-minor-gridline" paint-order="fill stroke markers" d=" M 0 216.5 L 600 216.5" stroke-opacity="0.2" stroke-miterlimit="10" stroke-dasharray=""/><path fill="none" stroke="rgb(0,0,0)" class="dcg-svg-minor-gridline" paint-order="fill stroke markers" d=" M 0 208.5 L 600 208.5" stroke-opacity="0.2" stroke-miterlimit="10" stroke-dasharray=""/><path fill="none" stroke="rgb(0,0,0)" class="dcg-svg-minor-gridline" paint-order="fill stroke markers" d=" M 0 200.5 L 600 200.5" stroke-opacity="0.2" stroke-miterlimit="10" stroke-dasharray=""/><path fill="none" stroke="rgb(0,0,0)" class="dcg-svg-minor-gridline" paint-order="fill stroke markers" d=" M 0 192.5 L 600 192.5" stroke-opacity="0.2" stroke-miterlimit="10" stroke-dasharray=""/><path fill="none" stroke="rgb(0,0,0)" class="dcg-svg-minor-gridline" paint-order="fill stroke markers" d=" M 0 184.5 L 600 184.5" stroke-opacity="0.2" stroke-miterlimit="10" stroke-dasharray=""/><path fill="none" stroke="rgb(0,0,0)" class="dcg-svg-minor-gridline" paint-order="fill stroke markers" d=" M 0 176.5 L 600 176.5" stroke-opacity="0.2" stroke-miterlimit="10" stroke-dasharray=""/><path fill="none" stroke="rgb(0,0,0)" class="dcg-svg-minor-gridline" paint-order="fill stroke markers" d=" M 0 168.5 L 600 168.5" stroke-opacity="0.2" stroke-miterlimit="10" stroke-dasharray=""/><path fill="none" stroke="rgb(0,0,0)" class="dcg-svg-minor-gridline" paint-order="fill stroke markers" d=" M 0 160.5 L 600 160.5" stroke-opacity="0.2" stroke-miterlimit="10" stroke-dasharray=""/><path fill="none" stroke="rgb(0,0,0)" class="dcg-svg-minor-gridline" paint-order="fill stroke markers" d=" M 0 152.5 L 600 152.5" stroke-opacity="0.2" stroke-miterlimit="10" stroke-dasharray=""/><path fill="none" stroke="rgb(0,0,0)" class="dcg-svg-minor-gridline" paint-order="fill stroke markers" d=" M 0 144.5 L 600 144.5" stroke-opacity="0.2" stroke-miterlimit="10" stroke-dasharray=""/><path fill="none" stroke="rgb(0,0,0)" class="dcg-svg-minor-gridline" paint-order="fill stroke markers" d=" M 0 136.5 L 600 136.5" stroke-opacity="0.2" stroke-miterlimit="10" stroke-dasharray=""/><path fill="none" stroke="rgb(0,0,0)" class="dcg-svg-minor-gridline" paint-order="fill stroke markers" d=" M 0 128.5 L 600 128.5" stroke-opacity="0.2" stroke-miterlimit="10" stroke-dasharray=""/><path fill="none" stroke="rgb(0,0,0)" class="dcg-svg-minor-gridline" paint-order="fill stroke markers" d=" M 0 120.5 L 600 120.5" stroke-opacity="0.2" stroke-miterlimit="10" stroke-dasharray=""/><path fill="none" stroke="rgb(0,0,0)" class="dcg-svg-minor-gridline" paint-order="fill stroke markers" d=" M 0 112.5 L 600 112.5" stroke-opacity="0.2" stroke-miterlimit="10" stroke-dasharray=""/><path fill="none" stroke="rgb(0,0,0)" class="dcg-svg-minor-gridline" paint-order="fill stroke markers" d=" M 0 104.5 L 600 104.5" stroke-opacity="0.2" stroke-miterlimit="10" stroke-dasharray=""/><path fill="none" stroke="rgb(0,0,0)" class="dcg-svg-minor-gridline" paint-order="fill stroke markers" d=" M 0 96.5 L 600 96.5" stroke-opacity="0.2" stroke-miterlimit="10" stroke-dasharray=""/><path fill="none" stroke="rgb(0,0,0)" class="dcg-svg-minor-gridline" paint-order="fill stroke markers" d=" M 0 88.5 L 600 88.5" stroke-opacity="0.2" stroke-miterlimit="10" stroke-dasharray=""/><path fill="none" stroke="rgb(0,0,0)" class="dcg-svg-minor-gridline" paint-order="fill stroke markers" d=" M 0 80.5 L 600 80.5" stroke-opacity="0.2" stroke-miterlimit="10" stroke-dasharray=""/><path fill="none" stroke="rgb(0,0,0)" class="dcg-svg-minor-gridline" paint-order="fill stroke markers" d=" M 0 72.5 L 600 72.5" stroke-opacity="0.2" stroke-miterlimit="10" stroke-dasharray=""/><path fill="none" stroke="rgb(0,0,0)" class="dcg-svg-minor-gridline" paint-order="fill stroke markers" d=" M 0 64.5 L 600 64.5" stroke-opacity="0.2" stroke-miterlimit="10" stroke-dasharray=""/><path fill="none" stroke="rgb(0,0,0)" class="dcg-svg-minor-gridline" paint-order="fill stroke markers" d=" M 0 56.5 L 600 56.5" stroke-opacity="0.2" stroke-miterlimit="10" stroke-dasharray=""/><path fill="none" stroke="rgb(0,0,0)" class="dcg-svg-minor-gridline" paint-order="fill stroke markers" d=" M 0 48.5 L 600 48.5" stroke-opacity="0.2" stroke-miterlimit="10" stroke-dasharray=""/><path fill="none" stroke="rgb(0,0,0)" class="dcg-svg-minor-gridline" paint-order="fill stroke markers" d=" M 0 40.5 L 600 40.5" stroke-opacity="0.2" stroke-miterlimit="10" stroke-dasharray=""/><path fill="none" stroke="rgb(0,0,0)" class="dcg-svg-minor-gridline" paint-order="fill stroke markers" d=" M 0 32.5 L 600 32.5" stroke-opacity="0.2" stroke-miterlimit="10" stroke-dasharray=""/><path fill="none" stroke="rgb(0,0,0)" class="dcg-svg-minor-gridline" paint-order="fill stroke markers" d=" M 0 24.5 L 600 24.5" stroke-opacity="0.2" stroke-miterlimit="10" stroke-dasharray=""/><path fill="none" stroke="rgb(0,0,0)" class="dcg-svg-minor-gridline" paint-order="fill stroke markers" d=" M 0 16.5 L 600 16.5" stroke-opacity="0.2" stroke-miterlimit="10" stroke-dasharray=""/><path fill="none" stroke="rgb(0,0,0)" class="dcg-svg-minor-gridline" paint-order="fill stroke markers" d=" M 0 8.5 L 600 8.5" stroke-opacity="0.2" stroke-miterlimit="10" stroke-dasharray=""/><path fill="none" stroke="rgb(0,0,0)" class="dcg-svg-major-gridline" paint-order="fill stroke markers" d=" M 281.5 0 L 281.5 400" stroke-opacity="0.2500000000000001" stroke-miterlimit="10" stroke-dasharray=""/><path fill="none" stroke="rgb(0,0,0)" class="dcg-svg-major-gridline" paint-order="fill stroke markers" d=" M 480.5 0 L 480.5 400" stroke-opacity="0.2500000000000001" stroke-miterlimit="10" stroke-dasharray=""/><path fill="none" stroke="rgb(0,0,0)" class="dcg-svg-major-gridline" paint-order="fill stroke markers" d=" M 0 360.5 L 600 360.5" stroke-opacity="0.2500000000000001" stroke-miterlimit="10" stroke-dasharray=""/><path fill="none" stroke="rgb(0,0,0)" class="dcg-svg-major-gridline" paint-order="fill stroke markers" d=" M 0 320.5 L 600 320.5" stroke-opacity="0.2500000000000001" stroke-miterlimit="10" stroke-dasharray=""/><path fill="none" stroke="rgb(0,0,0)" class="dcg-svg-major-gridline" paint-order="fill stroke markers" d=" M 0 280.5 L 600 280.5" stroke-opacity="0.2500000000000001" stroke-miterlimit="10" stroke-dasharray=""/><path fill="none" stroke="rgb(0,0,0)" class="dcg-svg-major-gridline" paint-order="fill stroke markers" d=" M 0 240.5 L 600 240.5" stroke-opacity="0.2500000000000001" stroke-miterlimit="10" stroke-dasharray=""/><path fill="none" stroke="rgb(0,0,0)" class="dcg-svg-major-gridline" paint-order="fill stroke markers" d=" M 0 200.5 L 600 200.5" stroke-opacity="0.2500000000000001" stroke-miterlimit="10" stroke-dasharray=""/><path fill="none" stroke="rgb(0,0,0)" class="dcg-svg-major-gridline" paint-order="fill stroke markers" d=" M 0 160.5 L 600 160.5" stroke-opacity="0.2500000000000001" stroke-miterlimit="10" stroke-dasharray=""/><path fill="none" stroke="rgb(0,0,0)" class="dcg-svg-major-gridline" paint-order="fill stroke markers" d=" M 0 120.5 L 600 120.5" stroke-opacity="0.2500000000000001" stroke-miterlimit="10" stroke-dasharray=""/><path fill="none" stroke="rgb(0,0,0)" class="dcg-svg-major-gridline" paint-order="fill stroke markers" d=" M 0 80.5 L 600 80.5" stroke-opacity="0.2500000000000001" stroke-miterlimit="10" stroke-dasharray=""/><path fill="none" stroke="rgb(0,0,0)" class="dcg-svg-major-gridline" paint-order="fill stroke markers" d=" M 0 40.5 L 600 40.5" stroke-opacity="0.2500000000000001" stroke-miterlimit="10" stroke-dasharray=""/></g></g><g id="axis-5d715601"><g id="yaxis-5d715601"><title>Retention (%)</title><g><path fill="none" stroke="rgb(0,0,0)" class="dcg-svg-axis-line" paint-order="fill stroke markers" d=" M 82 0 L 82 400" stroke-opacity="0.9" stroke-miterlimit="10" stroke-width="1.5" stroke-dasharray=""/></g></g><g id="xaxis-5d715601"><title>Time (Days)</title><g><path fill="none" stroke="rgb(0,0,0)" class="dcg-svg-axis-line" paint-order="fill stroke markers" d=" M 0 840 L 600 840" stroke-opacity="0.9" stroke-miterlimit="10" stroke-width="1.5" stroke-dasharray=""/></g></g><g><g class="dcg-svg-axis-value"><text fill="none" stroke="#ffffff" font-family="Arial" font-size="14px" font-style="normal" font-weight="normal" text-decoration="normal" x="72.81233015689861" y="855.808" text-anchor="middle" stroke-miterlimit="2" stroke-width="3" stroke-dasharray="">0</text><text fill="#000000" stroke="none" font-family="Arial" font-size="14px" font-style="normal" font-weight="normal" text-decoration="normal" x="72.81233015689861" y="855.808" text-anchor="middle">0</text></g><g class="dcg-svg-axis-value"><text fill="none" stroke="#ffffff" font-family="Arial" font-size="14px" font-style="normal" font-weight="normal" text-decoration="normal" x="281.0494748080914" y="393.808" text-anchor="middle" stroke-miterlimit="2" stroke-width="3" stroke-dasharray="">50</text><text fill="rgb(150,150,150)" stroke="none" font-family="Arial" font-size="14px" font-style="normal" font-weight="normal" text-decoration="normal" x="281.0494748080914" y="393.808" text-anchor="middle" fill-opacity="1">50</text></g><g class="dcg-svg-axis-value"><text fill="none" stroke="#ffffff" font-family="Arial" font-size="14px" font-style="normal" font-weight="normal" text-decoration="normal" x="480.3935530530343" y="393.808" text-anchor="middle" stroke-miterlimit="2" stroke-width="3" stroke-dasharray="">100</text><text fill="rgb(150,150,150)" stroke="none" font-family="Arial" font-size="14px" font-style="normal" font-weight="normal" text-decoration="normal" x="480.3935530530343" y="393.808" text-anchor="middle" fill-opacity="1">100</text></g><g class="dcg-svg-axis-value dcg-svg-offcenter-axis-value"><text fill="none" stroke="#ffffff" font-family="Arial" font-size="14px" font-style="normal" font-weight="normal" text-decoration="normal" x="68.91926375064861" y="393.808" text-anchor="middle" stroke-miterlimit="2" stroke-width="3" stroke-dasharray="">55</text><text fill="#000000" stroke="none" font-family="Arial" font-size="14px" font-style="normal" font-weight="normal" text-decoration="normal" x="68.91926375064861" y="393.808" text-anchor="middle">55</text></g><g class="dcg-svg-axis-value"><text fill="none" stroke="#ffffff" font-family="Arial" font-size="14px" font-style="normal" font-weight="normal" text-decoration="normal" x="68.91926375064861" y="363.808" text-anchor="middle" stroke-miterlimit="2" stroke-width="3" stroke-dasharray="">60</text><text fill="#000000" stroke="none" font-family="Arial" font-size="14px" font-style="normal" font-weight="normal" text-decoration="normal" x="68.91926375064861" y="363.808" text-anchor="middle">60</text></g><g class="dcg-svg-axis-value"><text fill="none" stroke="#ffffff" font-family="Arial" font-size="14px" font-style="normal" font-weight="normal" text-decoration="normal" x="68.91926375064861" y="323.808" text-anchor="middle" stroke-miterlimit="2" stroke-width="3" stroke-dasharray="">65</text><text fill="#000000" stroke="none" font-family="Arial" font-size="14px" font-style="normal" font-weight="normal" text-decoration="normal" x="68.91926375064861" y="323.808" text-anchor="middle">65</text></g><g class="dcg-svg-axis-value"><text fill="none" stroke="#ffffff" font-family="Arial" font-size="14px" font-style="normal" font-weight="normal" text-decoration="normal" x="68.91926375064861" y="283.808" text-anchor="middle" stroke-miterlimit="2" stroke-width="3" stroke-dasharray="">70</text><text fill="#000000" stroke="none" font-family="Arial" font-size="14px" font-style="normal" font-weight="normal" text-decoration="normal" x="68.91926375064861" y="283.808" text-anchor="middle">70</text></g><g class="dcg-svg-axis-value"><text fill="none" stroke="#ffffff" font-family="Arial" font-size="14px" font-style="normal" font-weight="normal" text-decoration="normal" x="68.91926375064861" y="243.808" text-anchor="middle" stroke-miterlimit="2" stroke-width="3" stroke-dasharray="">75</text><text fill="#000000" stroke="none" font-family="Arial" font-size="14px" font-style="normal" font-weight="normal" text-decoration="normal" x="68.91926375064861" y="243.808" text-anchor="middle">75</text></g><g class="dcg-svg-axis-value"><text fill="none" stroke="#ffffff" font-family="Arial" font-size="14px" font-style="normal" font-weight="normal" text-decoration="normal" x="68.91926375064861" y="203.808" text-anchor="middle" stroke-miterlimit="2" stroke-width="3" stroke-dasharray="">80</text><text fill="#000000" stroke="none" font-family="Arial" font-size="14px" font-style="normal" font-weight="normal" text-decoration="normal" x="68.91926375064861" y="203.808" text-anchor="middle">80</text></g><g class="dcg-svg-axis-value"><text fill="none" stroke="#ffffff" font-family="Arial" font-size="14px" font-style="normal" font-weight="normal" text-decoration="normal" x="68.91926375064861" y="163.808" text-anchor="middle" stroke-miterlimit="2" stroke-width="3" stroke-dasharray="">85</text><text fill="#000000" stroke="none" font-family="Arial" font-size="14px" font-style="normal" font-weight="normal" text-decoration="normal" x="68.91926375064861" y="163.808" text-anchor="middle">85</text></g><g class="dcg-svg-axis-value"><text fill="none" stroke="#ffffff" font-family="Arial" font-size="14px" font-style="normal" font-weight="normal" text-decoration="normal" x="68.91926375064861" y="123.808" text-anchor="middle" stroke-miterlimit="2" stroke-width="3" stroke-dasharray="">90</text><text fill="#000000" stroke="none" font-family="Arial" font-size="14px" font-style="normal" font-weight="normal" text-decoration="normal" x="68.91926375064861" y="123.808" text-anchor="middle">90</text></g><g class="dcg-svg-axis-value"><text fill="none" stroke="#ffffff" font-family="Arial" font-size="14px" font-style="normal" font-weight="normal" text-decoration="normal" x="68.91926375064861" y="83.808" text-anchor="middle" stroke-miterlimit="2" stroke-width="3" stroke-dasharray="">95</text><text fill="#000000" stroke="none" font-family="Arial" font-size="14px" font-style="normal" font-weight="normal" text-decoration="normal" x="68.91926375064861" y="83.808" text-anchor="middle">95</text></g><g class="dcg-svg-axis-value"><text fill="none" stroke="#ffffff" font-family="Arial" font-size="14px" font-style="normal" font-weight="normal" text-decoration="normal" x="65.02619734439861" y="43.808" text-anchor="middle" stroke-miterlimit="2" stroke-width="3" stroke-dasharray="">100</text><text fill="#000000" stroke="none" font-family="Arial" font-size="14px" font-style="normal" font-weight="normal" text-decoration="normal" x="65.02619734439861" y="43.808" text-anchor="middle">100</text></g><g class="dcg-svg-axis-value dcg-svg-offcenter-axis-value"><text fill="none" stroke="#ffffff" font-family="Arial" font-size="14px" font-style="normal" font-weight="normal" text-decoration="normal" x="65.02619734439861" y="13.808" text-anchor="middle" stroke-miterlimit="2" stroke-width="3" stroke-dasharray="">105</text><text fill="#000000" stroke="none" font-family="Arial" font-size="14px" font-style="normal" font-weight="normal" text-decoration="normal" x="65.02619734439861" y="13.808" text-anchor="middle">105</text></g></g><g class="dcg-svg-axis-label"><text fill="none" stroke="#ffffff" font-family="Arial" font-size="17px" font-style="normal" font-weight="normal" text-decoration="normal" x="493.0771484375" y="376" text-anchor="start" stroke-miterlimit="2" stroke-width="3" stroke-dasharray="">Time (Days)</text><text fill="#000000" stroke="none" font-family="Arial" font-size="17px" font-style="normal" font-weight="normal" text-decoration="normal" x="493.0771484375" y="376" text-anchor="start">Time (Days)</text></g><g class="dcg-svg-axis-label" transform="translate(46.34699812564861,118.93408203125) rotate(-90,0,0)"><text fill="none" stroke="#ffffff" font-family="Arial" font-size="17px" font-style="normal" font-weight="normal" text-decoration="normal" x="0" y="0" text-anchor="start" stroke-miterlimit="2" stroke-width="3" stroke-dasharray="">Retention (%)</text><text fill="#000000" stroke="none" font-family="Arial" font-size="17px" font-style="normal" font-weight="normal" text-decoration="normal" x="0" y="0" text-anchor="start">Retention (%)</text></g></g></g><g id="expressions-5d715601"><g id="sketch-5d715601"><title>Expression 23</title><path fill="#000000" stroke="none" paint-order="stroke fill markers" d="" fill-opacity="0.4"/><g><path fill="none" stroke="#000000" class="dcg-svg-curve" paint-order="fill stroke markers" d=" M 81.70539656314861 40 L 81.70539656314861 40 L 109.51865213420547 40 L 109.6650376898426 41.03212422367528 L 113.178291025134 108.42451601504672 L 116.69154436042538 170.1324058269754 L 120.20479769571679 226.63527749873992 L 121.08311102953962 239.99999999999977" stroke-linecap="round" stroke-linejoin="round" stroke-miterlimit="10" stroke-width="2.5" stroke-dasharray=""/></g></g><g id="sketch-5d715601"><title>Expression 24</title><path fill="#fa7e19" stroke="none" paint-order="stroke fill markers" d="" fill-opacity="0.4"/><g><path fill="none" stroke="#fa7e19" class="dcg-svg-curve" paint-order="fill stroke markers" d=" M 121.08311102953962 40 L 121.08311102953962 40 L 148.8624021136805 40 L 149.0086089088602 40.13905941299049 L 154.56446712568837 83.50456702434224 L 160.12032534251654 124.51895689138962 L 165.6761835593447 163.30969793936947 L 171.23204177617288 199.99734819892865 L 176.78789999300108 234.69592948931677 L 177.66514076407918 239.9999999999999" stroke-linecap="round" stroke-linejoin="round" stroke-miterlimit="10" stroke-width="2.5" stroke-dasharray=""/></g></g><g id="sketch-5d715601"><title>Expression 25</title><path fill="#2d70b3" stroke="none" paint-order="stroke fill markers" d="" fill-opacity="0.4"/><g><path fill="none" stroke="#2d70b3" class="dcg-svg-curve" paint-order="fill stroke markers" d=" M 177.66514076407918 40 L 177.66514076407918 40 L 205.49254576692195 40 L 205.78546581958346 40.6808370773831 L 214.71952742575928 68.83181696617714 L 223.65358903193513 95.99135600698526 L 232.58765063811094 122.19437145522602 L 241.5217122442868 147.47455082605802 L 250.60223387679338 172.2569883796582 L 259.6827555092999 196.1525715774644 L 268.7632771418065 219.19303703322532 L 277.2579586689901 239.9999999999999" stroke-linecap="round" stroke-linejoin="round" stroke-miterlimit="10" stroke-width="2.5" stroke-dasharray=""/></g></g><g id="sketch-5d715601"><title>Expression 26</title><path fill="#348543" stroke="none" paint-order="stroke fill markers" d="" fill-opacity="0.4"/><g><path fill="none" stroke="#348543" class="dcg-svg-curve" paint-order="fill stroke markers" d=" M 277.2579586689901 40 L 277.2579586689901 40 L 305.2352426655886 40.08875085507145 L 321.7872483808537 61.062794545375596 L 338.48573202280255 81.66522173682256 L 355.3306935914352 101.89630198217287 L 372.32213308675153 121.75655609509636 L 389.4600505087517 141.24674896427825 L 406.7444458574356 160.36788227700424 L 424.321797059487 179.2765651889108 L 442.0456261882222 197.81019148169185 L 459.9159332436412 215.9706890957458 L 478.07919615242764 233.9027230693664 L 484.37774699982936 240" stroke-linecap="round" stroke-linejoin="round" stroke-miterlimit="10" stroke-width="2.5" stroke-dasharray=""/></g></g><g id="sketch-5d715601"><title>Expression 27</title><path fill="#6042a6" stroke="none" paint-order="stroke fill markers" d="" fill-opacity="0.4"/></g><g id="sketch-5d715601"><title>Expression 28</title><path fill="#388e3c" stroke="none" paint-order="stroke fill markers" d="" fill-opacity="0.4"/><g><path fill="none" stroke="#388e3c" class="dcg-svg-curve" paint-order="fill stroke markers" d=" M 484.3777469998294 40 L 484.4777467661021 40.00021620687225 M 492.47772806791556 40.01751275665253 L 492.57772783418824 40.01772896352478 M 500.5777091360018 40.03502551330505 L 500.67770890227445 40.035241720177304 M 508.6776902040879 40.05253826995758 L 508.7776899703606 40.05275447682983 M 515.0497560093404 43.578667305440455 L 515.1108886074991 43.65780519423189 M 520.0014964601961 49.98883629754663 L 520.0626290583548 50.06797418633806 M 524.9532369110517 56.3990052896528 L 525.0143695092104 56.478143178444235 M 529.9271837868889 62.79178876858886 L 529.9893391414953 62.87012593661117 M 534.9617675100052 69.13709937839612 L 535.0239228646116 69.21543654641843 M 539.9963512331215 75.48240998820339 L 540.0585065877278 75.5607471562257 M 545.0319478955967 81.82690595773362 L 545.0951307747156 81.90441675560236 M 550.1497611042265 88.10528058510127 L 550.2129439833454 88.18279138297001 M 555.2675743128564 94.38365521246892 L 555.3307571919753 94.46116601033766 M 560.3853875214862 100.66202983983656 L 560.4485704006051 100.7395406377053 M 565.568399838288 106.88652766237223 L 565.6326138303573 106.9631864076171 M 570.7697331959048 113.0958860272069 L 570.8339471879741 113.17254477245177 M 575.9710665535216 119.30524439204159 L 576.0352805455909 119.38190313728646 M 581.2203546088778 125.47387661603875 L 581.2856020706878 125.54965767387878 M 586.5053990154861 131.6121423010819 L 586.5706464772961 131.68792335892192 M 591.7904434220944 137.75040798612503 L 591.8556908839045 137.82618904396506 M 597.0965358064934 143.8703882520219 L 597.1624526499633 143.94558778491253" stroke-linecap="round" stroke-linejoin="round" stroke-miterlimit="10" stroke-width="5" stroke-dasharray=""/></g></g><g id="sketch-5d715601"><title>Expression 29</title><path fill="#c74440" stroke="none" paint-order="stroke fill markers" d="" fill-opacity="0.4"/><g><path fill="none" stroke="#c74440" class="dcg-svg-curve" paint-order="fill stroke markers" d=" M 0 240 L 11 240 M 18 240 L 29 240 M 36 240 L 47 240 M 54 240 L 65 240 M 72 240 L 83 240 M 90 240 L 101 240 M 108 240 L 119 240 M 126 240 L 137 240 M 144 240 L 155 240 M 162 240 L 173 240 M 180 240 L 191 240 M 198 240 L 209 240 M 216 240 L 227 240 M 234 240 L 245 240 M 252 240 L 263 240 M 270 240 L 281 240 M 288 240 L 299 240 M 306 240 L 317 240 M 324 240 L 335 240 M 342 240 L 353 240 M 360 240 L 371 240 M 378 240 L 389 240 M 396 240 L 407 240 M 414 240 L 425 240 M 432 240 L 443 240 M 450 240 L 461 240 M 468 240 L 479 240 M 486 240 L 497 240 M 504 240 L 515 240 M 522 240 L 533 240 M 540 240 L 551 240 M 558 240 L 569 240 M 576 240 L 587 240 M 594 240 L 600 240" stroke-linecap="round" stroke-linejoin="round" stroke-miterlimit="10" stroke-width="2.5" stroke-dasharray=""/></g></g><g id="sketch-5d715601"><title>Expression 32</title><path fill="#000000" stroke="none" paint-order="stroke fill markers" d="" fill-opacity="0.4"/><g><path fill="none" stroke="#000000" class="dcg-svg-curve" paint-order="fill stroke markers" d=" M 81.70539656314861 40 L 92.70539656314861 40 M 99.70539656314861 40 L 109.53132893189735 40 M 109.53132893189735 40 L 109.6640264700142 41.1665445409969 M 110.03599106112331 48.156430934793 L 110.60885166647923 59.14150402179753 M 110.97339932443299 66.13200507716405 L 111.5462599297889 77.11707816416859 M 111.91080758774267 84.10757921953511 L 112.48366819309857 95.09265230653963 M 112.84821585105233 102.08315336190616 L 113.19263582252218 108.68768948089746 M 113.19263582252218 108.68768948089746 L 113.44206510933134 113.06708148004788 M 113.84010665204879 120.05575538360577 L 114.46560050489049 131.03795723205388 M 114.86364204760794 138.02663113561178 L 115.48913590044964 149.0088329840599 M 115.88717744316709 155.9975068876178 L 116.51267129600879 166.9797087360659 M 116.92937334785017 173.9672708573739 L 117.61230197992268 184.94605077517423 M 118.04689292760517 191.9325470865017 L 118.72982155967767 202.91132700430202 M 119.16441250736017 209.8978233156295 L 119.84734113943267 220.87660323342982 M 120.28739966009412 227.8627437677472 L 121.03299229551507 238.83744611551072 M 121.50746033623749 245.82134760954204 L 122.25305297165843 256.79604995730557 M 122.72752101238085 263.7799514513369 L 123.47311364780178 274.7546537991004 M 123.96686950356045 281.7371845588928 L 124.78081804114385 292.70702903263833 M 125.29878529233328 299.6878391522946 L 126.11273382991669 310.6576836260401 M 126.63070108110612 317.6384937456964 L 127.25205428252154 326.01266934533317 M 127.25205428252154 326.01266934533317 L 127.46228891045251 328.6069691099613 M 128.02769539692764 335.58409713695437 L 128.9161913042457 346.54815546508627 M 129.48159779072083 353.5252834920793 L 130.3700936980389 364.4893418202112 M 130.95092242242848 371.46516249957415 L 131.92069533707647 382.4223309519625 M 132.5378235554888 389.39507451257333 L 133.50759647013678 400.3522429649617" stroke-linecap="round" stroke-linejoin="round" stroke-miterlimit="10" stroke-width="2.5" stroke-dasharray=""/></g></g><g id="sketch-5d715601"><title>Expression 33</title><path fill="#fa7e19" stroke="none" paint-order="stroke fill markers" d="" fill-opacity="0.4"/><g><path fill="none" stroke="#fa7e19" class="dcg-svg-curve" paint-order="fill stroke markers" d=" M 121.08311102953962 40 L 132.08311102953962 40 M 139.08311102953962 40 L 148.91008622965813 40 M 148.91008622965813 40 L 149.05654399386927 40.52364253448388 M 149.05654399386927 40.52364253448388 L 149.13649694524904 41.147829186216725 M 150.02587037673564 48.0911003820844 L 151.42345719764316 59.00195511844789 M 152.31283062912976 65.94522631431556 L 153.7104174500373 76.85608105067905 M 154.6066148805598 83.7984537430986 L 156.08092248739106 94.69920679416987 M 157.0191182371928 101.63604964485158 L 158.49342584402407 112.53680269592284 M 159.4316215938258 119.47364554660456 L 159.89441854549437 122.89547913109686 M 159.89441854549437 122.89547913109686 L 160.96210630272995 130.36658567873295 M 161.9524074041975 137.29618189557215 L 163.50859484936075 148.1855473791766 M 164.49889595082826 155.1151435960158 L 165.45981358551808 161.8391300645485 M 165.45981358551808 161.8391300645485 L 166.0885240951267 165.99959296927065 M 167.1344577191995 172.92101066032455 L 168.77806769988536 183.79752417483783 M 169.82400132395819 190.71894186589174 L 171.02520862554178 198.66787598221674 M 171.02520862554178 198.66787598221674 L 171.49240067860939 201.59160183268966 M 172.59694163255344 208.50390892085207 L 174.3326488458941 219.36610577367873 M 175.43718979983817 226.27841286184113 L 176.59060366556545 233.49657060527522 M 176.59060366556545 233.49657060527522 L 177.20543178439846 237.13526171029494 M 178.37168731465792 244.0374242727198 L 180.20437457649425 254.88367972795885 M 181.3706301067537 261.7858422903837 L 182.15599870558918 266.4338303169701 M 182.15599870558918 266.4338303169701 L 183.26164849472912 272.62195879355664 M 184.49285942094326 279.51283099199213 L 186.42761944785124 290.34134444667643 M 187.6588303740654 297.23221664511186 L 187.72139374561286 297.582372892476 M 187.72139374561286 297.582372892476 L 189.69749391190052 308.0416328191314 M 190.997034806315 314.91994609083866 L 193.0391704975378 325.7287240892358 M 194.39686062418232 332.5957359213657 L 196.551883539086 343.38257402324894 M 197.92326175766107 350.2469255426292 L 198.85218382566026 354.8965893060522 M 198.85218382566026 354.8965893060522 L 200.14576432122246 361.0198957371346 M 201.592617669433 367.86873617831674 L 203.8662443594781 378.63119972874586 M 205.36214235742202 385.4693821152669 L 207.76028817471197 396.20478600329153 M 209.28638096753284 403.0364066593072 L 209.83671480938077 405.5" stroke-linecap="round" stroke-linejoin="round" stroke-miterlimit="10" stroke-width="2.5" stroke-dasharray=""/></g></g><g id="sketch-5d715601"><title>Expression 34</title><path fill="#2d70b3" stroke="none" paint-order="stroke fill markers" d="" fill-opacity="0.4"/><g><path fill="none" stroke="#2d70b3" class="dcg-svg-curve" paint-order="fill stroke markers" d=" M 177.66514076407918 40 L 188.66514076407918 40 M 195.66514076407918 40 L 205.48886588711144 40 M 205.48886588711144 40 L 205.781747204196 40.66890842519979 M 205.781747204196 40.66890842519979 L 205.91667483515693 41.094068988065054 M 208.03410181382236 47.766137856865775 L 211.3614870660109 58.25081750783834 M 213.47891404467634 64.92288637663907 L 214.71462737527474 68.81665203038744 M 214.71462737527474 68.81665203038744 L 216.87530885010287 75.38526636757523 M 219.06259510655633 82.03476099741965 L 222.49975922384033 92.48396684431803 M 224.72109927179648 99.12205575483581 L 228.27086002109263 109.53354933754316 M 230.52979867973562 116.15904525381148 L 232.5803877174323 122.17344907271172 M 232.5803877174323 122.17344907271172 L 234.12829887700138 126.55361861896435 M 236.46067770421718 133.15361930126397 L 240.12584443269913 143.52504894487765 M 242.48894832771722 150.11399228980412 L 246.2732873469202 160.44253420953982 M 248.681503086413 167.0152427039171 L 250.5925887181321 172.2311411631341 M 250.5925887181321 172.2311411631341 L 252.5267229399594 177.32106515274936 M 255.01320581857973 183.86456596610057 L 258.92053605641166 194.14721010136677 M 261.46288560377195 200.6690890309568 L 265.49602319741376 210.9030423800176 M 268.06256530245855 217.41555814760176 L 268.7512303773742 219.16302301488645 M 268.7512303773742 219.16302301488645 L 272.2023209028821 227.6067163634504 M 274.8506814716843 234.08639122393635 L 277.8305512069952 241.37716093213726 M 277.8305512069952 241.37716093213726 L 279.049971344803 244.25309110109265 M 281.78254508380803 250.69770441462046 L 286.076589530816 260.824953907307 M 288.8647184734933 267.2455683646836 L 293.29485924113436 277.3140266766043 M 296.1140397296332 283.7212274205539 L 296.2820741833219 284.1031222588148 M 296.2820741833219 284.1031222588148 L 300.6776265073292 293.7298653180008 M 303.5850751806416 300.0974977046932 L 305.50783567148517 304.30855466529624 M 305.50783567148517 304.30855466529624 L 308.2363544328386 310.0654260291088 M 311.2343764104076 316.39091922901133 L 314.8800378181908 324.08285965393713 M 314.8800378181908 324.08285965393713 L 315.9785501274929 326.3150424387823 M 319.06941323101535 332.59569250667204 L 323.92648382226497 342.46528547049877 M 327.1017095514205 348.7036259726602 L 332.1069679826917 358.49889973280534 M 335.3426064796931 364.7059680072457 L 340.49935323815555 374.4223440224628 M 343.80004921916964 380.59514284108536 L 349.11145657226723 390.22784505435146 M 352.49144306969293 396.3577464627935 L 352.66172772209774 396.6665725872195 M 352.66172772209774 396.6665725872195 L 357.72355709799706 405.5" stroke-linecap="round" stroke-linejoin="round" stroke-miterlimit="10" stroke-width="2.5" stroke-dasharray=""/></g></g><g id="sketch-5d715601"><title>Expression 35</title><path fill="#348543" stroke="none" paint-order="stroke fill markers" d="" fill-opacity="0.4"/><g><path fill="none" stroke="#348543" class="dcg-svg-curve" paint-order="fill stroke markers" d=" M 277.2579586689901 40 L 288.25791573438806 40.03073368513768 M 295.2578884123686 40.05029148477075 L 305.22698312190425 40.07814495875152 M 305.22698312190425 40.07814495875152 L 305.8655935183993 40.88738055722614 M 310.20201661302343 46.382417840485516 L 317.01639576171846 55.01747642846455 M 321.35281885634254 60.512513711723926 L 321.77410230085354 61.04635650886189 M 321.77410230085354 61.04635650886189 L 328.2720761180455 69.06369436152326 M 332.6796378116226 74.50183741934286 L 338.4676561628023 81.64321716698623 M 338.4676561628023 81.64321716698623 L 339.6242440470528 83.0323443638441 M 344.1032075794566 88.41183185573372 L 351.14157884466255 96.8653122001317 M 355.6255430657753 102.24057914602986 L 362.77640063933825 110.59912183974251 M 367.32694636796924 115.9181944630142 L 372.2940679356986 121.72419706642506 M 372.2940679356986 121.72419706642506 L 374.51220033394 124.24690444534238 M 379.13442247223463 129.50381061763218 L 386.39791440384056 137.76466317408756 M 391.0448441002501 142.99954248067115 L 398.4209784774064 151.15997394292444 M 403.1148821719604 156.35297578254017 L 406.706218440593 160.32617529051595 M 406.706218440593 160.32617529051595 L 410.5489864268701 164.460270398862 M 415.3147843190952 169.58737196314397 L 422.8038952925919 177.64424584987276 M 427.619421006877 182.72446430704383 L 435.22168354094754 190.67465954760664 M 440.0594869717197 195.73387470069207 L 441.9969770434847 197.76003786963702 M 441.9969770434847 197.76003786963702 L 447.7457227280578 203.60261658877764 M 452.6552405914011 208.5922693171259 L 459.86200836942993 215.91666847548368 M 459.86200836942993 215.91666847548368 L 460.37760990541256 216.42575234953222 M 465.35874020708366 221.34391673452117 L 473.1862306811382 229.07246076807527 M 478.1694829713751 233.9884441972334 L 486.1096192836293 241.60121211322968 M 491.16243330051833 246.4457007870455 L 496.47067911931754 251.53508991972444 M 496.47067911931754 251.53508991972444 L 499.1397328839155 254.0191269676205 M 504.26389451112937 258.788085723805 L 512.3161484967511 266.28216376923785 M 517.473132245539 271.0153215364572 L 525.6367878217201 278.38788741500235 M 530.831841370199 283.07952024680384 L 533.9579579672027 285.9027040938379 M 533.9579579672027 285.9027040938379 L 539.0639457883134 290.3751267265992 M 544.3295884479923 294.9873937809414 L 552.6041697703447 302.23524200919337 M 557.9323439935441 306.7750128312769 L 566.3163421580981 313.89600818141975 M 571.6516137173596 318.42755067696515 L 572.3238449130849 318.9985139721647 M 572.3238449130849 318.9985139721647 L 580.1339801861078 325.430936277905 M 585.5373063971531 329.8811122134194 L 591.5067883860261 334.7975736774831 M 591.5067883860261 334.7975736774831 L 594.0507175955082 336.84665832383894 M 599.5021956036062 341.2377160013495 L 600 341.63868759353727" stroke-linecap="round" stroke-linejoin="round" stroke-miterlimit="10" stroke-width="2.5" stroke-dasharray=""/></g></g><g id="sketch-5d715601"><title>L0</title></g><g id="sketch-5d715601"><title>L1</title></g><g id="sketch-5d715601"><title>L2</title></g><g id="sketch-5d715601"><title>L3</title></g><g id="sketch-5d715601"><title>L4</title></g><g id="sketch-5d715601"><title>R1: ${D_{R1}} Days</title><path fill="#000000" stroke="none" class="dcg-svg-point" paint-order="stroke fill markers" d=" M 124.83311102953962 240 A 3.75 3.75 0 1 1 124.83310915453978 239.996250000625 Z"/></g><g id="sketch-5d715601"><title>R2: ${D_{R2}} Days</title><path fill="#fa7e19" stroke="none" class="dcg-svg-point" paint-order="stroke fill markers" d=" M 181.41514076407918 240 A 3.75 3.75 0 1 1 181.41513888907934 239.996250000625 Z"/></g><g id="sketch-5d715601"><title>R3: ${D_{R3}} Days</title><path fill="#2d70b3" stroke="none" class="dcg-svg-point" paint-order="stroke fill markers" d=" M 281.0079586689901 240 A 3.75 3.75 0 1 1 281.0079567939903 239.996250000625 Z"/></g><g id="sketch-5d715601"><title>R4: ${D_{R4}} Days</title></g><g id="sketch-5d715601"><title>Rm: ${D_{Rm}} Days</title><path fill="#388e3c" stroke="none" class="dcg-svg-point" paint-order="stroke fill markers" d=" M 488.1277469998294 240 A 3.75 3.75 0 1 1 488.1277451248296 239.996250000625 Z"/></g></g><g id="labels-5d715601"><g transform="rotate(0,0,0) translate(85.5,15)"><g class="dcg-svg-label"><text fill="none" stroke="#FFF" font-family="arial, sans-serif" font-size="15.4px" font-style="normal" font-weight="400" text-decoration="normal" x="0" y="13.93428225402832" text-anchor="start" stroke-linecap="round" stroke-linejoin="round" stroke-miterlimit="2" stroke-width="3" stroke-dasharray="">L0</text><text fill="rgb(0, 0, 0)" stroke="none" font-family="arial, sans-serif" font-size="15.4px" font-style="normal" font-weight="400" text-decoration="normal" x="0" y="13.93428225402832" text-anchor="start">L0</text></g></g><g transform="rotate(0,0,0) translate(124.5,15)"><g class="dcg-svg-label"><text fill="none" stroke="#FFF" font-family="arial, sans-serif" font-size="15.4px" font-style="normal" font-weight="400" text-decoration="normal" x="0" y="13.93428225402832" text-anchor="start" stroke-linecap="round" stroke-linejoin="round" stroke-miterlimit="2" stroke-width="3" stroke-dasharray="">L1</text><text fill="rgb(250, 126, 25)" stroke="none" font-family="arial, sans-serif" font-size="15.4px" font-style="normal" font-weight="400" text-decoration="normal" x="0" y="13.93428225402832" text-anchor="start">L1</text></g></g><g transform="rotate(0,0,0) translate(181.5,15)"><g class="dcg-svg-label"><text fill="none" stroke="#FFF" font-family="arial, sans-serif" font-size="15.4px" font-style="normal" font-weight="400" text-decoration="normal" x="0" y="13.93428225402832" text-anchor="start" stroke-linecap="round" stroke-linejoin="round" stroke-miterlimit="2" stroke-width="3" stroke-dasharray="">L2</text><text fill="rgb(45, 112, 179)" stroke="none" font-family="arial, sans-serif" font-size="15.4px" font-style="normal" font-weight="400" text-decoration="normal" x="0" y="13.93428225402832" text-anchor="start">L2</text></g></g><g transform="rotate(0,0,0) translate(280.5,15)"><g class="dcg-svg-label"><text fill="none" stroke="#FFF" font-family="arial, sans-serif" font-size="15.4px" font-style="normal" font-weight="400" text-decoration="normal" x="0" y="13.93428225402832" text-anchor="start" stroke-linecap="round" stroke-linejoin="round" stroke-miterlimit="2" stroke-width="3" stroke-dasharray="">L3</text><text fill="rgb(52, 133, 67)" stroke="none" font-family="arial, sans-serif" font-size="15.4px" font-style="normal" font-weight="400" text-decoration="normal" x="0" y="13.93428225402832" text-anchor="start">L3</text></g></g><g transform="rotate(-57.29577951308232,0,0) translate(-214.57645734385025,224.99054257010903)"><g class="dcg-svg-label"><text fill="none" stroke="#FFF" font-family="arial, sans-serif" font-size="12.32px" font-style="normal" font-weight="400" text-decoration="normal" x="0" y="10.482836684265136" text-anchor="start" stroke-linecap="round" stroke-linejoin="round" stroke-miterlimit="2" stroke-width="3" stroke-dasharray="">R1: 10 Days</text><text fill="rgb(0, 0, 0)" stroke="none" font-family="arial, sans-serif" font-size="12.32px" font-style="normal" font-weight="400" text-decoration="normal" x="0" y="10.482836684265136" text-anchor="start">R1: 10 Days</text></g></g><g transform="rotate(-57.29577951308232,0,0) translate(-183.7792259093663,272.9543887041591)"><g class="dcg-svg-label"><text fill="none" stroke="#FFF" font-family="arial, sans-serif" font-size="12.32px" font-style="normal" font-weight="400" text-decoration="normal" x="0" y="10.482836684265136" text-anchor="start" stroke-linecap="round" stroke-linejoin="round" stroke-miterlimit="2" stroke-width="3" stroke-dasharray="">R2: 14 Days</text><text fill="rgb(250, 126, 25)" stroke="none" font-family="arial, sans-serif" font-size="12.32px" font-style="normal" font-weight="400" text-decoration="normal" x="0" y="10.482836684265136" text-anchor="start">R2: 14 Days</text></g></g><g transform="rotate(-57.29577951308232,0,0) translate(-130.28929762842046,356.26001620014085)"><g class="dcg-svg-label"><text fill="none" stroke="#FFF" font-family="arial, sans-serif" font-size="12.32px" font-style="normal" font-weight="400" text-decoration="normal" x="0" y="10.482836684265136" text-anchor="start" stroke-linecap="round" stroke-linejoin="round" stroke-miterlimit="2" stroke-width="3" stroke-dasharray="">R3: 25 Days</text><text fill="rgb(45, 112, 179)" stroke="none" font-family="arial, sans-serif" font-size="12.32px" font-style="normal" font-weight="400" text-decoration="normal" x="0" y="10.482836684265136" text-anchor="start">R3: 25 Days</text></g></g><g transform="rotate(-57.29577951308232,0,0) translate(-21.44672031371553,530.4445100553754)"><g class="dcg-svg-label"><text fill="none" stroke="#FFF" font-family="arial, sans-serif" font-size="12.32px" font-style="normal" font-weight="400" text-decoration="normal" x="0" y="10.482836684265136" text-anchor="start" stroke-linecap="round" stroke-linejoin="round" stroke-miterlimit="2" stroke-width="3" stroke-dasharray="">Rm: 52 Days</text><text fill="rgb(56, 142, 60)" stroke="none" font-family="arial, sans-serif" font-size="12.32px" font-style="normal" font-weight="400" text-decoration="normal" x="0" y="10.482836684265136" text-anchor="start">Rm: 52 Days</text></g></g></g><g id="labels-5d715601"/></g></svg>