<svg version="1.1" xmlns="http://www.w3.org/2000/svg" xmlns:xlink="http://www.w3.org/1999/xlink" width="1200" height="800"><defs/><g transform="scale(2,2)"><g id="background-a6a8c64a"><rect fill="white" stroke="none" x="0" y="0" width="600" height="400" class="dcg-svg-background"/></g><g id="graphpaper-a6a8c64a"><g id="grid-a6a8c64a"><g><path fill="none" stroke="rgb(0,0,0)" class="dcg-svg-minor-gridline" paint-order="fill stroke markers" d=" M 1.5 0 L 1.5 400" stroke-opacity="0.2" stroke-miterlimit="10" stroke-dasharray=""/><path fill="none" stroke="rgb(0,0,0)" class="dcg-svg-minor-gridline" paint-order="fill stroke markers" d=" M 41.5 0 L 41.5 400" stroke-opacity="0.2" stroke-miterlimit="10" stroke-dasharray=""/><path fill="none" stroke="rgb(0,0,0)" class="dcg-svg-minor-gridline" paint-order="fill stroke markers" d=" M 121.5 0 L 121.5 400" stroke-opacity="0.2" stroke-miterlimit="10" stroke-dasharray=""/><path fill="none" stroke="rgb(0,0,0)" class="dcg-svg-minor-gridline" paint-order="fill stroke markers" d=" M 161.5 0 L 161.5 400" stroke-opacity="0.2" stroke-miterlimit="10" stroke-dasharray=""/><path fill="none" stroke="rgb(0,0,0)" class="dcg-svg-minor-gridline" paint-order="fill stroke markers" d=" M 201.5 0 L 201.5 400" stroke-opacity="0.2" stroke-miterlimit="10" stroke-dasharray=""/><path fill="none" stroke="rgb(0,0,0)" class="dcg-svg-minor-gridline" paint-order="fill stroke markers" d=" M 241.5 0 L 241.5 400" stroke-opacity="0.2" stroke-miterlimit="10" stroke-dasharray=""/><path fill="none" stroke="rgb(0,0,0)" class="dcg-svg-minor-gridline" paint-order="fill stroke markers" d=" M 281.5 0 L 281.5 400" stroke-opacity="0.2" stroke-miterlimit="10" stroke-dasharray=""/><path fill="none" stroke="rgb(0,0,0)" class="dcg-svg-minor-gridline" paint-order="fill stroke markers" d=" M 320.5 0 L 320.5 400" stroke-opacity="0.2" stroke-miterlimit="10" stroke-dasharray=""/><path fill="none" stroke="rgb(0,0,0)" class="dcg-svg-minor-gridline" paint-order="fill stroke markers" d=" M 360.5 0 L 360.5 400" stroke-opacity="0.2" stroke-miterlimit="10" stroke-dasharray=""/><path fill="none" stroke="rgb(0,0,0)" class="dcg-svg-minor-gridline" paint-order="fill stroke markers" d=" M 400.5 0 L 400.5 400" stroke-opacity="0.2" stroke-miterlimit="10" stroke-dasharray=""/><path fill="none" stroke="rgb(0,0,0)" class="dcg-svg-minor-gridline" paint-order="fill stroke markers" d=" M 440.5 0 L 440.5 400" stroke-opacity="0.2" stroke-miterlimit="10" stroke-dasharray=""/><path fill="none" stroke="rgb(0,0,0)" class="dcg-svg-minor-gridline" paint-order="fill stroke markers" d=" M 480.5 0 L 480.5 400" stroke-opacity="0.2" stroke-miterlimit="10" stroke-dasharray=""/><path fill="none" stroke="rgb(0,0,0)" class="dcg-svg-minor-gridline" paint-order="fill stroke markers" d=" M 520.5 0 L 520.5 400" stroke-opacity="0.2" stroke-miterlimit="10" stroke-dasharray=""/><path fill="none" stroke="rgb(0,0,0)" class="dcg-svg-minor-gridline" paint-order="fill stroke markers" d=" M 560.5 0 L 560.5 400" stroke-opacity="0.2" stroke-miterlimit="10" stroke-dasharray=""/><path fill="none" stroke="rgb(0,0,0)" class="dcg-svg-minor-gridline" paint-order="fill stroke markers" d=" M 0 392.5 L 600 392.5" stroke-opacity="0.2" stroke-miterlimit="10" stroke-dasharray=""/><path fill="none" stroke="rgb(0,0,0)" class="dcg-svg-minor-gridline" paint-order="fill stroke markers" d=" M 0 384.5 L 600 384.5" stroke-opacity="0.2" stroke-miterlimit="10" stroke-dasharray=""/><path fill="none" stroke="rgb(0,0,0)" class="dcg-svg-minor-gridline" paint-order="fill stroke markers" d=" M 0 376.5 L 600 376.5" stroke-opacity="0.2" stroke-miterlimit="10" stroke-dasharray=""/><path fill="none" stroke="rgb(0,0,0)" class="dcg-svg-minor-gridline" paint-order="fill stroke markers" d=" M 0 368.5 L 600 368.5" stroke-opacity="0.2" stroke-miterlimit="10" stroke-dasharray=""/><path fill="none" stroke="rgb(0,0,0)" class="dcg-svg-minor-gridline" paint-order="fill stroke markers" d=" M 0 360.5 L 600 360.5" stroke-opacity="0.2" stroke-miterlimit="10" stroke-dasharray=""/><path fill="none" stroke="rgb(0,0,0)" class="dcg-svg-minor-gridline" paint-order="fill stroke markers" d=" M 0 352.5 L 600 352.5" stroke-opacity="0.2" stroke-miterlimit="10" stroke-dasharray=""/><path fill="none" stroke="rgb(0,0,0)" class="dcg-svg-minor-gridline" paint-order="fill stroke markers" d=" M 0 344.5 L 600 344.5" stroke-opacity="0.2" stroke-miterlimit="10" stroke-dasharray=""/><path fill="none" stroke="rgb(0,0,0)" class="dcg-svg-minor-gridline" paint-order="fill stroke markers" d=" M 0 336.5 L 600 336.5" stroke-opacity="0.2" stroke-miterlimit="10" stroke-dasharray=""/><path fill="none" stroke="rgb(0,0,0)" class="dcg-svg-minor-gridline" paint-order="fill stroke markers" d=" M 0 328.5 L 600 328.5" stroke-opacity="0.2" stroke-miterlimit="10" stroke-dasharray=""/><path fill="none" stroke="rgb(0,0,0)" class="dcg-svg-minor-gridline" paint-order="fill stroke markers" d=" M 0 320.5 L 600 320.5" stroke-opacity="0.2" stroke-miterlimit="10" stroke-dasharray=""/><path fill="none" stroke="rgb(0,0,0)" class="dcg-svg-minor-gridline" paint-order="fill stroke markers" d=" M 0 312.5 L 600 312.5" stroke-opacity="0.2" stroke-miterlimit="10" stroke-dasharray=""/><path fill="none" stroke="rgb(0,0,0)" class="dcg-svg-minor-gridline" paint-order="fill stroke markers" d=" M 0 304.5 L 600 304.5" stroke-opacity="0.2" stroke-miterlimit="10" stroke-dasharray=""/><path fill="none" stroke="rgb(0,0,0)" class="dcg-svg-minor-gridline" paint-order="fill stroke markers" d=" M 0 296.5 L 600 296.5" stroke-opacity="0.2" stroke-miterlimit="10" stroke-dasharray=""/><path fill="none" stroke="rgb(0,0,0)" class="dcg-svg-minor-gridline" paint-order="fill stroke markers" d=" M 0 288.5 L 600 288.5" stroke-opacity="0.2" stroke-miterlimit="10" stroke-dasharray=""/><path fill="none" stroke="rgb(0,0,0)" class="dcg-svg-minor-gridline" paint-order="fill stroke markers" d=" M 0 280.5 L 600 280.5" stroke-opacity="0.2" stroke-miterlimit="10" stroke-dasharray=""/><path fill="none" stroke="rgb(0,0,0)" class="dcg-svg-minor-gridline" paint-order="fill stroke markers" d=" M 0 272.5 L 600 272.5" stroke-opacity="0.2" stroke-miterlimit="10" stroke-dasharray=""/><path fill="none" stroke="rgb(0,0,0)" class="dcg-svg-minor-gridline" paint-order="fill stroke markers" d=" M 0 264.5 L 600 264.5" stroke-opacity="0.2" stroke-miterlimit="10" stroke-dasharray=""/><path fill="none" stroke="rgb(0,0,0)" class="dcg-svg-minor-gridline" paint-order="fill stroke markers" d=" M 0 256.5 L 600 256.5" stroke-opacity="0.2" stroke-miterlimit="10" stroke-dasharray=""/><path fill="none" stroke="rgb(0,0,0)" class="dcg-svg-minor-gridline" paint-order="fill stroke markers" d=" M 0 248.5 L 600 248.5" stroke-opacity="0.2" stroke-miterlimit="10" stroke-dasharray=""/><path fill="none" stroke="rgb(0,0,0)" class="dcg-svg-minor-gridline" paint-order="fill stroke markers" d=" M 0 240.5 L 600 240.5" stroke-opacity="0.2" stroke-miterlimit="10" stroke-dasharray=""/><path fill="none" stroke="rgb(0,0,0)" class="dcg-svg-minor-gridline" paint-order="fill stroke markers" d=" M 0 232.5 L 600 232.5" stroke-opacity="0.2" stroke-miterlimit="10" stroke-dasharray=""/><path fill="none" stroke="rgb(0,0,0)" class="dcg-svg-minor-gridline" paint-order="fill stroke markers" d=" M 0 224.5 L 600 224.5" stroke-opacity="0.2" stroke-miterlimit="10" stroke-dasharray=""/><path fill="none" stroke="rgb(0,0,0)" class="dcg-svg-minor-gridline" paint-order="fill stroke markers" d=" M 0 216.5 L 600 216.5" stroke-opacity="0.2" stroke-miterlimit="10" stroke-dasharray=""/><path fill="none" stroke="rgb(0,0,0)" class="dcg-svg-minor-gridline" paint-order="fill stroke markers" d=" M 0 208.5 L 600 208.5" stroke-opacity="0.2" stroke-miterlimit="10" stroke-dasharray=""/><path fill="none" stroke="rgb(0,0,0)" class="dcg-svg-minor-gridline" paint-order="fill stroke markers" d=" M 0 200.5 L 600 200.5" stroke-opacity="0.2" stroke-miterlimit="10" stroke-dasharray=""/><path fill="none" stroke="rgb(0,0,0)" class="dcg-svg-minor-gridline" paint-order="fill stroke markers" d=" M 0 192.5 L 600 192.5" stroke-opacity="0.2" stroke-miterlimit="10" stroke-dasharray=""/><path fill="none" stroke="rgb(0,0,0)" class="dcg-svg-minor-gridline" paint-order="fill stroke markers" d=" M 0 184.5 L 600 184.5" stroke-opacity="0.2" stroke-miterlimit="10" stroke-dasharray=""/><path fill="none" stroke="rgb(0,0,0)" class="dcg-svg-minor-gridline" paint-order="fill stroke markers" d=" M 0 176.5 L 600 176.5" stroke-opacity="0.2" stroke-miterlimit="10" stroke-dasharray=""/><path fill="none" stroke="rgb(0,0,0)" class="dcg-svg-minor-gridline" paint-order="fill stroke markers" d=" M 0 168.5 L 600 168.5" stroke-opacity="0.2" stroke-miterlimit="10" stroke-dasharray=""/><path fill="none" stroke="rgb(0,0,0)" class="dcg-svg-minor-gridline" paint-order="fill stroke markers" d=" M 0 160.5 L 600 160.5" stroke-opacity="0.2" stroke-miterlimit="10" stroke-dasharray=""/><path fill="none" stroke="rgb(0,0,0)" class="dcg-svg-minor-gridline" paint-order="fill stroke markers" d=" M 0 152.5 L 600 152.5" stroke-opacity="0.2" stroke-miterlimit="10" stroke-dasharray=""/><path fill="none" stroke="rgb(0,0,0)" class="dcg-svg-minor-gridline" paint-order="fill stroke markers" d=" M 0 144.5 L 600 144.5" stroke-opacity="0.2" stroke-miterlimit="10" stroke-dasharray=""/><path fill="none" stroke="rgb(0,0,0)" class="dcg-svg-minor-gridline" paint-order="fill stroke markers" d=" M 0 136.5 L 600 136.5" stroke-opacity="0.2" stroke-miterlimit="10" stroke-dasharray=""/><path fill="none" stroke="rgb(0,0,0)" class="dcg-svg-minor-gridline" paint-order="fill stroke markers" d=" M 0 128.5 L 600 128.5" stroke-opacity="0.2" stroke-miterlimit="10" stroke-dasharray=""/><path fill="none" stroke="rgb(0,0,0)" class="dcg-svg-minor-gridline" paint-order="fill stroke markers" d=" M 0 120.5 L 600 120.5" stroke-opacity="0.2" stroke-miterlimit="10" stroke-dasharray=""/><path fill="none" stroke="rgb(0,0,0)" class="dcg-svg-minor-gridline" paint-order="fill stroke markers" d=" M 0 112.5 L 600 112.5" stroke-opacity="0.2" stroke-miterlimit="10" stroke-dasharray=""/><path fill="none" stroke="rgb(0,0,0)" class="dcg-svg-minor-gridline" paint-order="fill stroke markers" d=" M 0 104.5 L 600 104.5" stroke-opacity="0.2" stroke-miterlimit="10" stroke-dasharray=""/><path fill="none" stroke="rgb(0,0,0)" class="dcg-svg-minor-gridline" paint-order="fill stroke markers" d=" M 0 96.5 L 600 96.5" stroke-opacity="0.2" stroke-miterlimit="10" stroke-dasharray=""/><path fill="none" stroke="rgb(0,0,0)" class="dcg-svg-minor-gridline" paint-order="fill stroke markers" d=" M 0 88.5 L 600 88.5" stroke-opacity="0.2" stroke-miterlimit="10" stroke-dasharray=""/><path fill="none" stroke="rgb(0,0,0)" class="dcg-svg-minor-gridline" paint-order="fill stroke markers" d=" M 0 80.5 L 600 80.5" stroke-opacity="0.2" stroke-miterlimit="10" stroke-dasharray=""/><path fill="none" stroke="rgb(0,0,0)" class="dcg-svg-minor-gridline" paint-order="fill stroke markers" d=" M 0 72.5 L 600 72.5" stroke-opacity="0.2" stroke-miterlimit="10" stroke-dasharray=""/><path fill="none" stroke="rgb(0,0,0)" class="dcg-svg-minor-gridline" paint-order="fill stroke markers" d=" M 0 64.5 L 600 64.5" stroke-opacity="0.2" stroke-miterlimit="10" stroke-dasharray=""/><path fill="none" stroke="rgb(0,0,0)" class="dcg-svg-minor-gridline" paint-order="fill stroke markers" d=" M 0 56.5 L 600 56.5" stroke-opacity="0.2" stroke-miterlimit="10" stroke-dasharray=""/><path fill="none" stroke="rgb(0,0,0)" class="dcg-svg-minor-gridline" paint-order="fill stroke markers" d=" M 0 48.5 L 600 48.5" stroke-opacity="0.2" stroke-miterlimit="10" stroke-dasharray=""/><path fill="none" stroke="rgb(0,0,0)" class="dcg-svg-minor-gridline" paint-order="fill stroke markers" d=" M 0 40.5 L 600 40.5" stroke-opacity="0.2" stroke-miterlimit="10" stroke-dasharray=""/><path fill="none" stroke="rgb(0,0,0)" class="dcg-svg-minor-gridline" paint-order="fill stroke markers" d=" M 0 32.5 L 600 32.5" stroke-opacity="0.2" stroke-miterlimit="10" stroke-dasharray=""/><path fill="none" stroke="rgb(0,0,0)" class="dcg-svg-minor-gridline" paint-order="fill stroke markers" d=" M 0 24.5 L 600 24.5" stroke-opacity="0.2" stroke-miterlimit="10" stroke-dasharray=""/><path fill="none" stroke="rgb(0,0,0)" class="dcg-svg-minor-gridline" paint-order="fill stroke markers" d=" M 0 16.5 L 600 16.5" stroke-opacity="0.2" stroke-miterlimit="10" stroke-dasharray=""/><path fill="none" stroke="rgb(0,0,0)" class="dcg-svg-minor-gridline" paint-order="fill stroke markers" d=" M 0 8.5 L 600 8.5" stroke-opacity="0.2" stroke-miterlimit="10" stroke-dasharray=""/><path fill="none" stroke="rgb(0,0,0)" class="dcg-svg-major-gridline" paint-order="fill stroke markers" d=" M 281.5 0 L 281.5 400" stroke-opacity="0.2500000000000001" stroke-miterlimit="10" stroke-dasharray=""/><path fill="none" stroke="rgb(0,0,0)" class="dcg-svg-major-gridline" paint-order="fill stroke markers" d=" M 480.5 0 L 480.5 400" stroke-opacity="0.2500000000000001" stroke-miterlimit="10" stroke-dasharray=""/><path fill="none" stroke="rgb(0,0,0)" class="dcg-svg-major-gridline" paint-order="fill stroke markers" d=" M 0 360.5 L 600 360.5" stroke-opacity="0.2500000000000001" stroke-miterlimit="10" stroke-dasharray=""/><path fill="none" stroke="rgb(0,0,0)" class="dcg-svg-major-gridline" paint-order="fill stroke markers" d=" M 0 320.5 L 600 320.5" stroke-opacity="0.2500000000000001" stroke-miterlimit="10" stroke-dasharray=""/><path fill="none" stroke="rgb(0,0,0)" class="dcg-svg-major-gridline" paint-order="fill stroke markers" d=" M 0 280.5 L 600 280.5" stroke-opacity="0.2500000000000001" stroke-miterlimit="10" stroke-dasharray=""/><path fill="none" stroke="rgb(0,0,0)" class="dcg-svg-major-gridline" paint-order="fill stroke markers" d=" M 0 240.5 L 600 240.5" stroke-opacity="0.2500000000000001" stroke-miterlimit="10" stroke-dasharray=""/><path fill="none" stroke="rgb(0,0,0)" class="dcg-svg-major-gridline" paint-order="fill stroke markers" d=" M 0 200.5 L 600 200.5" stroke-opacity="0.2500000000000001" stroke-miterlimit="10" stroke-dasharray=""/><path fill="none" stroke="rgb(0,0,0)" class="dcg-svg-major-gridline" paint-order="fill stroke markers" d=" M 0 160.5 L 600 160.5" stroke-opacity="0.2500000000000001" stroke-miterlimit="10" stroke-dasharray=""/><path fill="none" stroke="rgb(0,0,0)" class="dcg-svg-major-gridline" paint-order="fill stroke markers" d=" M 0 120.5 L 600 120.5" stroke-opacity="0.2500000000000001" stroke-miterlimit="10" stroke-dasharray=""/><path fill="none" stroke="rgb(0,0,0)" class="dcg-svg-major-gridline" paint-order="fill stroke markers" d=" M 0 80.5 L 600 80.5" stroke-opacity="0.2500000000000001" stroke-miterlimit="10" stroke-dasharray=""/><path fill="none" stroke="rgb(0,0,0)" class="dcg-svg-major-gridline" paint-order="fill stroke markers" d=" M 0 40.5 L 600 40.5" stroke-opacity="0.2500000000000001" stroke-miterlimit="10" stroke-dasharray=""/></g></g><g id="axis-a6a8c64a"><g id="yaxis-a6a8c64a"><title>Retention (%)</title><g><path fill="none" stroke="rgb(0,0,0)" class="dcg-svg-axis-line" paint-order="fill stroke markers" d=" M 82 0 L 82 400" stroke-opacity="0.9" stroke-miterlimit="10" stroke-width="1.5" stroke-dasharray=""/></g></g><g id="xaxis-a6a8c64a"><title>Time (Days)</title><g><path fill="none" stroke="rgb(0,0,0)" class="dcg-svg-axis-line" paint-order="fill stroke markers" d=" M 0 840 L 600 840" stroke-opacity="0.9" stroke-miterlimit="10" stroke-width="1.5" stroke-dasharray=""/></g></g><g><g class="dcg-svg-axis-value"><text fill="none" stroke="#ffffff" font-family="Arial" font-size="14px" font-style="normal" font-weight="normal" text-decoration="normal" x="72.81233015689861" y="855.808" text-anchor="middle" stroke-miterlimit="2" stroke-width="3" stroke-dasharray="">0</text><text fill="#000000" stroke="none" font-family="Arial" font-size="14px" font-style="normal" font-weight="normal" text-decoration="normal" x="72.81233015689861" y="855.808" text-anchor="middle">0</text></g><g class="dcg-svg-axis-value"><text fill="none" stroke="#ffffff" font-family="Arial" font-size="14px" font-style="normal" font-weight="normal" text-decoration="normal" x="281.0494748080914" y="393.808" text-anchor="middle" stroke-miterlimit="2" stroke-width="3" stroke-dasharray="">50</text><text fill="rgb(150,150,150)" stroke="none" font-family="Arial" font-size="14px" font-style="normal" font-weight="normal" text-decoration="normal" x="281.0494748080914" y="393.808" text-anchor="middle" fill-opacity="1">50</text></g><g class="dcg-svg-axis-value"><text fill="none" stroke="#ffffff" font-family="Arial" font-size="14px" font-style="normal" font-weight="normal" text-decoration="normal" x="480.3935530530343" y="393.808" text-anchor="middle" stroke-miterlimit="2" stroke-width="3" stroke-dasharray="">100</text><text fill="rgb(150,150,150)" stroke="none" font-family="Arial" font-size="14px" font-style="normal" font-weight="normal" text-decoration="normal" x="480.3935530530343" y="393.808" text-anchor="middle" fill-opacity="1">100</text></g><g class="dcg-svg-axis-value dcg-svg-offcenter-axis-value"><text fill="none" stroke="#ffffff" font-family="Arial" font-size="14px" font-style="normal" font-weight="normal" text-decoration="normal" x="68.91926375064861" y="393.808" text-anchor="middle" stroke-miterlimit="2" stroke-width="3" stroke-dasharray="">55</text><text fill="#000000" stroke="none" font-family="Arial" font-size="14px" font-style="normal" font-weight="normal" text-decoration="normal" x="68.91926375064861" y="393.808" text-anchor="middle">55</text></g><g class="dcg-svg-axis-value"><text fill="none" stroke="#ffffff" font-family="Arial" font-size="14px" font-style="normal" font-weight="normal" text-decoration="normal" x="68.91926375064861" y="363.808" text-anchor="middle" stroke-miterlimit="2" stroke-width="3" stroke-dasharray="">60</text><text fill="#000000" stroke="none" font-family="Arial" font-size="14px" font-style="normal" font-weight="normal" text-decoration="normal" x="68.91926375064861" y="363.808" text-anchor="middle">60</text></g><g class="dcg-svg-axis-value"><text fill="none" stroke="#ffffff" font-family="Arial" font-size="14px" font-style="normal" font-weight="normal" text-decoration="normal" x="68.91926375064861" y="323.808" text-anchor="middle" stroke-miterlimit="2" stroke-width="3" stroke-dasharray="">65</text><text fill="#000000" stroke="none" font-family="Arial" font-size="14px" font-style="normal" font-weight="normal" text-decoration="normal" x="68.91926375064861" y="323.808" text-anchor="middle">65</text></g><g class="dcg-svg-axis-value"><text fill="none" stroke="#ffffff" font-family="Arial" font-size="14px" font-style="normal" font-weight="normal" text-decoration="normal" x="68.91926375064861" y="283.808" text-anchor="middle" stroke-miterlimit="2" stroke-width="3" stroke-dasharray="">70</text><text fill="#000000" stroke="none" font-family="Arial" font-size="14px" font-style="normal" font-weight="normal" text-decoration="normal" x="68.91926375064861" y="283.808" text-anchor="middle">70</text></g><g class="dcg-svg-axis-value"><text fill="none" stroke="#ffffff" font-family="Arial" font-size="14px" font-style="normal" font-weight="normal" text-decoration="normal" x="68.91926375064861" y="243.808" text-anchor="middle" stroke-miterlimit="2" stroke-width="3" stroke-dasharray="">75</text><text fill="#000000" stroke="none" font-family="Arial" font-size="14px" font-style="normal" font-weight="normal" text-decoration="normal" x="68.91926375064861" y="243.808" text-anchor="middle">75</text></g><g class="dcg-svg-axis-value"><text fill="none" stroke="#ffffff" font-family="Arial" font-size="14px" font-style="normal" font-weight="normal" text-decoration="normal" x="68.91926375064861" y="203.808" text-anchor="middle" stroke-miterlimit="2" stroke-width="3" stroke-dasharray="">80</text><text fill="#000000" stroke="none" font-family="Arial" font-size="14px" font-style="normal" font-weight="normal" text-decoration="normal" x="68.91926375064861" y="203.808" text-anchor="middle">80</text></g><g class="dcg-svg-axis-value"><text fill="none" stroke="#ffffff" font-family="Arial" font-size="14px" font-style="normal" font-weight="normal" text-decoration="normal" x="68.91926375064861" y="163.808" text-anchor="middle" stroke-miterlimit="2" stroke-width="3" stroke-dasharray="">85</text><text fill="#000000" stroke="none" font-family="Arial" font-size="14px" font-style="normal" font-weight="normal" text-decoration="normal" x="68.91926375064861" y="163.808" text-anchor="middle">85</text></g><g class="dcg-svg-axis-value"><text fill="none" stroke="#ffffff" font-family="Arial" font-size="14px" font-style="normal" font-weight="normal" text-decoration="normal" x="68.91926375064861" y="123.808" text-anchor="middle" stroke-miterlimit="2" stroke-width="3" stroke-dasharray="">90</text><text fill="#000000" stroke="none" font-family="Arial" font-size="14px" font-style="normal" font-weight="normal" text-decoration="normal" x="68.91926375064861" y="123.808" text-anchor="middle">90</text></g><g class="dcg-svg-axis-value"><text fill="none" stroke="#ffffff" font-family="Arial" font-size="14px" font-style="normal" font-weight="normal" text-decoration="normal" x="68.91926375064861" y="83.808" text-anchor="middle" stroke-miterlimit="2" stroke-width="3" stroke-dasharray="">95</text><text fill="#000000" stroke="none" font-family="Arial" font-size="14px" font-style="normal" font-weight="normal" text-decoration="normal" x="68.91926375064861" y="83.808" text-anchor="middle">95</text></g><g class="dcg-svg-axis-value"><text fill="none" stroke="#ffffff" font-family="Arial" font-size="14px" font-style="normal" font-weight="normal" text-decoration="normal" x="65.02619734439861" y="43.808" text-anchor="middle" stroke-miterlimit="2" stroke-width="3" stroke-dasharray="">100</text><text fill="#000000" stroke="none" font-family="Arial" font-size="14px" font-style="normal" font-weight="normal" text-decoration="normal" x="65.02619734439861" y="43.808" text-anchor="middle">100</text></g><g class="dcg-svg-axis-value dcg-svg-offcenter-axis-value"><text fill="none" stroke="#ffffff" font-family="Arial" font-size="14px" font-style="normal" font-weight="normal" text-decoration="normal" x="65.02619734439861" y="13.808" text-anchor="middle" stroke-miterlimit="2" stroke-width="3" stroke-dasharray="">105</text><text fill="#000000" stroke="none" font-family="Arial" font-size="14px" font-style="normal" font-weight="normal" text-decoration="normal" x="65.02619734439861" y="13.808" text-anchor="middle">105</text></g></g><g class="dcg-svg-axis-label"><text fill="none" stroke="#ffffff" font-family="Arial" font-size="17px" font-style="normal" font-weight="normal" text-decoration="normal" x="493.0771484375" y="376" text-anchor="start" stroke-miterlimit="2" stroke-width="3" stroke-dasharray="">Time (Days)</text><text fill="#000000" stroke="none" font-family="Arial" font-size="17px" font-style="normal" font-weight="normal" text-decoration="normal" x="493.0771484375" y="376" text-anchor="start">Time (Days)</text></g><g class="dcg-svg-axis-label" transform="translate(46.34699812564861,118.93408203125) rotate(-90,0,0)"><text fill="none" stroke="#ffffff" font-family="Arial" font-size="17px" font-style="normal" font-weight="normal" text-decoration="normal" x="0" y="0" text-anchor="start" stroke-miterlimit="2" stroke-width="3" stroke-dasharray="">Retention (%)</text><text fill="#000000" stroke="none" font-family="Arial" font-size="17px" font-style="normal" font-weight="normal" text-decoration="normal" x="0" y="0" text-anchor="start">Retention (%)</text></g></g></g><g id="expressions-a6a8c64a"><g id="sketch-a6a8c64a"><title>Expression 23</title><path fill="#000000" stroke="none" paint-order="stroke fill markers" d="" fill-opacity="0.4"/><g><path fill="none" stroke="#000000" class="dcg-svg-curve" paint-order="fill stroke markers" d=" M 81.70539656314861 40 L 81.70539656314861 40 L 109.57301595653969 40 L 110.01072725591233 78.87058041606917 L 111.61566868694533 217.6356970988286 L 111.90747621986041 239.99999999999966" stroke-linecap="round" stroke-linejoin="round" stroke-miterlimit="10" stroke-width="2.5" stroke-dasharray=""/></g></g><g id="sketch-a6a8c64a"><title>Expression 24</title><path fill="#fa7e19" stroke="none" paint-order="stroke fill markers" d="" fill-opacity="0.4"/><g><path fill="none" stroke="#fa7e19" class="dcg-svg-curve" paint-order="fill stroke markers" d=" M 111.90747621986041 40 L 111.90747621986041 40 L 139.69947237188165 40 L 139.84574603583968 41.20700450495838 L 142.33239832312577 134.88556109976344 L 144.8190506104119 217.57795229855446 L 145.55041893020191 239.99999999999955" stroke-linecap="round" stroke-linejoin="round" stroke-miterlimit="10" stroke-width="2.5" stroke-dasharray=""/></g></g><g id="sketch-a6a8c64a"><title>Expression 25</title><path fill="#2d70b3" stroke="none" paint-order="stroke fill markers" d="" fill-opacity="0.4"/><g><path fill="none" stroke="#2d70b3" class="dcg-svg-curve" paint-order="fill stroke markers" d=" M 145.55041893020194 40 L 145.55041893020194 40 L 173.32401431234376 40 L 173.47019113014454 40.18620901974111 L 177.4169652107647 101.0843834905346 L 181.36373929138483 157.3457441232846 L 185.310513372005 209.32333996676027 L 187.79551927461767 239.99999999999977" stroke-linecap="round" stroke-linejoin="round" stroke-miterlimit="10" stroke-width="2.5" stroke-dasharray=""/></g></g><g id="sketch-a6a8c64a"><title>Expression 26</title><path fill="#348543" stroke="none" paint-order="stroke fill markers" d="" fill-opacity="0.4"/><g><path fill="none" stroke="#348543" class="dcg-svg-curve" paint-order="fill stroke markers" d=" M 187.7955192746177 40 L 187.7955192746177 40 L 215.72291477015412 40.12343238191943 L 221.86401744456526 78.59382770954448 L 228.0051201189764 115.21397341544252 L 234.14622279338755 150.07285802269848 L 240.28732546779872 183.25519011446488 L 246.42842814220984 214.8416041794485 L 251.54601370421912 239.99999999999977" stroke-linecap="round" stroke-linejoin="round" stroke-miterlimit="10" stroke-width="2.5" stroke-dasharray=""/></g></g><g id="sketch-a6a8c64a"><title>Expression 27</title><path fill="#6042a6" stroke="none" paint-order="stroke fill markers" d="" fill-opacity="0.4"/><g><path fill="none" stroke="#6042a6" class="dcg-svg-curve" paint-order="fill stroke markers" d=" M 251.54601370421915 40 L 251.54601370421915 40 L 279.49765767897634 40.11164933236648 L 289.5953719944646 65.62740333995635 L 299.8394299956845 90.68136972566731 L 310.0834879969044 114.92474282028866 L 320.3275459981243 138.38374847059606 L 330.71794768507596 161.4026715628462 L 341.1083493720276 183.66638007850702 L 351.4987510589792 205.19965141721661 L 362.0354964316625 226.314852069494 L 369.0599933467847 239.9999999999999" stroke-linecap="round" stroke-linejoin="round" stroke-miterlimit="10" stroke-width="2.5" stroke-dasharray=""/></g></g><g id="sketch-a6a8c64a"><title>Expression 28</title><path fill="#6042a6" stroke="none" paint-order="stroke fill markers" d="" fill-opacity="0.4"/><g><path fill="none" stroke="#6042a6" class="dcg-svg-curve" paint-order="fill stroke markers" d=" M 369.0599933467848 40 L 369.1599933467848 40 M 377.1599933467848 40 L 377.2599933467848 40 M 385.2599933467848 40 L 385.35999334678485 40 M 393.3599933467848 40 L 393.4599933467848 40 M 398.6366809795314 44.22264485197974 L 398.67349590533945 44.31562152237478 M 401.6186899699831 51.753755153978055 L 401.6555048957912 51.846731824373094 M 404.60069896043484 59.28486545597637 L 404.6375138862429 59.37784212637141 M 407.5912973866195 66.812518342304 L 407.629162206953 66.90507240964364 M 410.65834783363516 74.30939779681447 L 410.6962126539687 74.4019518641541 M 413.72539828065084 81.80627725132493 L 413.7632631009844 81.89883131866456 M 416.79244872766645 89.30315670583539 L 416.830313548 89.39571077317503 M 419.925713168889 96.77249525683014 L 419.9646554199676 96.86460117998892 M 423.08003550625455 104.23307503269184 L 423.11897775733314 104.32518095585063 M 426.2343578436201 111.69365480855355 L 426.2733000946987 111.78576073171233 M 429.43389547067716 119.13479863230889 L 429.47393464917764 119.22643303733781 M 432.67706892921797 126.55718543965168 L 432.71710810771845 126.6488198446806 M 435.9202423877588 133.97957224699448 L 435.96028156625925 134.0712066520234 M 439.1951030572734 141.38788082939976 L 439.2362660498469 141.47901593812517 M 442.52930545572895 148.76982463615778 L 442.57046844830245 148.8609597448832 M 445.86350785418455 156.1517684429158 L 445.90467084675805 156.2429035516412 M 449.21911448136535 163.52388099680607 L 449.2614279579984 163.61448767258233 M 452.64650608864343 170.8630217346827 L 452.6888195652765 170.95362841045895 M 456.07389769592146 178.20216247255928 L 456.11621117255453 178.29276914833554 M 459.51984431738805 185.53249136896662 L 459.5633261869108 185.62254317085203 M 463.041875748728 192.82668732168503 L 463.0853576182507 192.91673912357044 M 466.56390718006793 200.12088327440344 L 466.60738904959067 200.21093507628885 M 470.10952690875024 207.40349547370263 L 470.15420252684066 207.4929610489159 M 473.7282519740733 214.65020706597693 L 473.77292759216374 214.7396726411902 M 477.3469770393964 221.89691865825122 L 477.3916526574868 221.9863842334645 M 480.9925123149826 229.13005359742192 L 481.03819016908625 229.21901164171518 M 484.69241849737926 236.3356551851773 L 484.7380963514829 236.42461322947057" stroke-linecap="round" stroke-linejoin="round" stroke-miterlimit="10" stroke-width="5" stroke-dasharray=""/></g><g><path fill="none" stroke="#6042a6" class="dcg-svg-curve" paint-order="fill stroke markers" d=" M 486.5739729893504 40 L 486.67397298935043 40 M 494.67397298935043 40 L 494.77397298935045 40 M 502.77397298935045 40 L 502.8739729893505 40 M 510.8739729893504 40 L 510.97397298935044 40 M 516.1647204950963 44.167911950296705 L 516.2022435298052 44.26060511005641 M 519.2040863065133 51.67605789083284 L 519.2416093412222 51.76875105059254 M 522.2434521179304 59.184203831368976 L 522.2809751526393 59.27689699112868 M 525.2828179293474 66.69234977190511 L 525.3203409640563 66.78504293166482 M 528.3221837407644 74.20049571244125 L 528.3597067754733 74.29318887220096 M 531.3615495521815 81.70864165297739 L 531.3990725868904 81.8013348127371 M 534.4009153635985 89.21678759351353 L 534.4384383983074 89.30948075327323 M 537.4402811750156 96.72493353404965 L 537.4778042097245 96.81762669380936 M 540.5616228720053 104.19895205221198 L 540.600963154448 104.2908886726487 M 543.7481857498667 111.64581830758645 L 543.7875260323094 111.73775492802318 M 546.9347486277281 119.09268456296093 L 546.9740889101708 119.18462118339765 M 550.1517103032483 126.52632593102891 L 550.192154481901 126.61778230540003 M 553.4276887741146 133.93429225508982 L 553.4681329527673 134.02574862946094 M 556.7036672449808 141.34225857915075 L 556.7441114236335 141.43371495352187 M 559.9989535549819 148.7415430466872 L 560.0405283220332 148.83249104691055 M 563.3665096861408 156.1083310647785 L 563.4080844531921 156.19927906500183 M 566.7340658172999 163.47511908286978 L 566.7756405843512 163.56606708309315 M 570.1131781773835 170.83653504603635 L 570.1559099700976 170.9269451886722 M 573.574453387229 178.15975659954057 L 573.6171851799431 178.25016674217642 M 577.0357285970745 185.48297815304477 L 577.0784603897886 185.57338829568062 M 580.5083619003212 192.80074054650808 L 580.5522683107969 192.8905861202396 M 584.0647811488479 200.07823201876062 L 584.1086875593236 200.16807759249212 M 587.6212003973748 207.35572349101315 L 587.6651068078504 207.44556906474466 M 591.1957147952838 214.62422886911008 L 591.240762079921 214.71350788202366 M 594.8445448508913 221.85582891510924 L 594.8895921355285 221.94510792802282 M 598.493374906499 229.0874289611084 L 598.5384221911361 229.17670797402198" stroke-linecap="round" stroke-linejoin="round" stroke-miterlimit="10" stroke-width="5" stroke-dasharray=""/></g></g><g id="sketch-a6a8c64a"><title>Expression 29</title><path fill="#c74440" stroke="none" paint-order="stroke fill markers" d="" fill-opacity="0.4"/><g><path fill="none" stroke="#c74440" class="dcg-svg-curve" paint-order="fill stroke markers" d=" M 0 240 L 11 240 M 18 240 L 29 240 M 36 240 L 47 240 M 54 240 L 65 240 M 72 240 L 83 240 M 90 240 L 101 240 M 108 240 L 119 240 M 126 240 L 137 240 M 144 240 L 155 240 M 162 240 L 173 240 M 180 240 L 191 240 M 198 240 L 209 240 M 216 240 L 227 240 M 234 240 L 245 240 M 252 240 L 263 240 M 270 240 L 281 240 M 288 240 L 299 240 M 306 240 L 317 240 M 324 240 L 335 240 M 342 240 L 353 240 M 360 240 L 371 240 M 378 240 L 389 240 M 396 240 L 407 240 M 414 240 L 425 240 M 432 240 L 443 240 M 450 240 L 461 240 M 468 240 L 479 240 M 486 240 L 497 240 M 504 240 L 515 240 M 522 240 L 533 240 M 540 240 L 551 240 M 558 240 L 569 240 M 576 240 L 587 240 M 594 240 L 600 240" stroke-linecap="round" stroke-linejoin="round" stroke-miterlimit="10" stroke-width="2.5" stroke-dasharray=""/></g></g><g id="sketch-a6a8c64a"><title>Expression 32</title><path fill="#000000" stroke="none" paint-order="stroke fill markers" d="" fill-opacity="0.4"/><g><path fill="none" stroke="#000000" class="dcg-svg-curve" paint-order="fill stroke markers" d=" M 81.70539656314861 40 L 92.70539656314861 40 M 99.70539656314861 40 L 109.53132893189735 40 M 109.53132893189735 40 L 109.55811872783941 41.17376194757938 M 109.69726370278877 48.172288449829026 L 109.81932263633313 59.17161122974334 M 109.89699650313408 66.171180271507 L 110.01905543667843 77.17050305142132 M 110.09672930347938 84.17007209318497 L 110.21878823702374 95.1693948730993 M 110.2964621038247 102.16896391486294 L 110.41852103736906 113.16828669477727 M 110.49619490417001 120.16785573654091 L 110.61825383771438 131.16717851645524 M 110.69592770451533 138.1667475582189 L 110.8179866380597 149.1660703381332 M 110.89566050486064 156.16563937989687 L 111.01771943840501 167.16496215981118 M 111.09539330520596 174.16453120157485 L 111.21745223875031 185.16385398148915 M 111.29655201718947 192.16340542867246 L 111.44593417066955 203.16239106245806 M 111.54099554106597 210.16174555668525 L 111.69037769454604 221.16073119047084 M 111.78543906494247 228.16008568469803 L 111.93482121842254 239.15907131848363 M 112.02988258881896 246.15842581271082 L 112.17926474229904 257.1574114464964 M 112.27432611269546 264.1567659407236 L 112.42370826617554 275.15575157450917 M 112.51876963657195 282.15510606873636 L 112.66815179005204 293.15409170252195 M 112.76321316044844 300.15344619674914 L 112.89973127127219 310.20525429243355 M 112.89973127127219 310.20525429243355 L 112.91547472418932 311.15238834628605 M 113.03181406237839 318.1514215051152 L 113.21463302238976 329.14990218327523 M 113.33097236057883 336.1489353421044 L 113.5137913205902 347.1474160202645 M 113.63013065877927 354.1464491790936 L 113.81294961879064 365.14492985725366 M 113.9292889569797 372.1439630160828 L 114.11210791699108 383.14244369424284 M 114.22844725518014 390.141476853072 L 114.41126621519152 401.139957531232" stroke-linecap="round" stroke-linejoin="round" stroke-miterlimit="10" stroke-width="2.5" stroke-dasharray=""/></g></g><g id="sketch-a6a8c64a"><title>Expression 33</title><path fill="#fa7e19" stroke="none" paint-order="stroke fill markers" d="" fill-opacity="0.4"/><g><path fill="none" stroke="#fa7e19" class="dcg-svg-curve" paint-order="fill stroke markers" d=" M 111.90747621986041 40 L 122.90747621986041 40 M 129.90747621986043 40 L 139.73153248095448 40 M 139.73153248095448 40 L 139.8003690137305 41.173927258746225 M 140.02879611887653 48.1696491273154 L 140.3211755584614 59.16576272546034 M 140.5072352018336 66.16328956064348 L 140.79961464141846 77.15940315878842 M 140.98567428479066 84.15692999397156 L 141.27805372437552 95.15304359211649 M 141.46411336774773 102.15057042729964 L 141.7564928073326 113.14668402544459 M 141.9425524507048 120.14421086062772 L 142.23493189028966 131.14032445877265 M 142.42810141301214 138.1376496741543 L 142.75933963128602 149.13266132684274 M 142.97012758836942 156.12948692400812 L 143.3013658066433 167.12449857669657 M 143.5121537637267 174.12132417386195 L 143.84339198200058 185.1163358265504 M 144.05417993908398 192.11316142371578 L 144.3854181573579 203.10817307640423 M 144.5962061144413 210.10499867356958 L 144.85701652905075 218.76225314956912 M 144.85701652905075 218.76225314956912 L 144.93680229508703 221.09970965702064 M 145.1755983067767 228.09563536165768 L 145.550849182289 239.08923289751587 M 145.78964519397866 246.0851586021529 L 146.16489606949096 257.0787561380111 M 146.40369208118062 264.07468184264815 L 146.77894295669293 275.0682793785063 M 147.0177389683826 282.06420508314335 L 147.34653735241181 291.6968997424775 M 147.34653735241181 291.6968997424775 L 147.39916021369072 293.0575779953232 M 147.6696759383786 300.0523489881933 L 148.09477207717381 311.0441319769891 M 148.36528780186168 318.0389029698592 L 148.7903839406569 329.030685958655 M 149.06089966534478 336.0254569515251 L 149.48599580414003 347.0172399403209 M 149.7565115288279 354.012010933191 L 149.83605817577285 356.0688620802824 M 149.83605817577285 356.0688620802824 L 150.22748933962288 365.00190149087433 M 150.5339238372901 371.9951909814245 L 151.01546376219574 382.9846458951462 M 151.32189825986296 389.97793538569636 L 151.8034381847686 400.967390299418" stroke-linecap="round" stroke-linejoin="round" stroke-miterlimit="10" stroke-width="2.5" stroke-dasharray=""/></g></g><g id="sketch-a6a8c64a"><title>Expression 34</title><path fill="#2d70b3" stroke="none" paint-order="stroke fill markers" d="" fill-opacity="0.4"/><g><path fill="none" stroke="#2d70b3" class="dcg-svg-curve" paint-order="fill stroke markers" d=" M 145.55041893020194 40 L 156.55041893020194 40 M 163.55041893020194 40 L 173.3768515448528 40 M 173.3768515448528 40 L 173.52330645335095 41.038197953319695 M 173.52330645335095 41.038197953319695 L 173.53139401498927 41.163026614069466 M 173.98397023560034 48.14838091893743 L 174.69516143941772 59.12536625515851 M 175.14773766002878 66.11072056002648 L 175.8589288638462 77.08770589624757 M 176.31150508445725 84.07306020111554 L 177.02269628827463 95.05004553733662 M 177.48666371988514 102.03463251820868 L 178.25406012037396 113.00783181305961 M 178.7424032843214 119.99077681887383 L 179.50979968481025 130.96397611372475 M 179.99814284875768 137.94692111953898 L 180.76553924924653 148.9201204143899 M 181.2629575326474 155.9024055721167 L 182.09095409407755 166.87119865496132 M 182.61786099680583 173.8513397076806 L 183.44585755823599 184.82013279052524 M 183.97276446096424 191.80027384324453 L 184.8007610223944 202.76906692608915 M 185.35771826347184 209.74684954533527 L 186.25104161469937 220.7105156014568 M 186.8195201109351 227.68739400080688 L 187.71284346216262 238.6510600569284 M 188.2813219583983 245.62793845627849 L 188.75461693715985 251.4366392878983 M 188.75461693715985 251.4366392878983 L 189.20840232837776 256.5887426562534 M 189.82256854600436 263.56174773707227 L 190.787686887989 274.51932714978767 M 191.4018531056156 281.49233223060656 L 192.36697144760024 292.449911643322 M 193.0034238484474 299.42087278778473 L 194.04754948738116 310.37120619139034 M 194.71199307579357 317.339600175503 L 195.75611871472736 328.28993357910866 M 196.42056230313975 335.2583275632213 L 196.66318199606062 337.80281687437054 M 196.66318199606062 337.80281687437054 L 197.5302037936243 346.20215612759324 M 198.2489596272781 353.1651576392683 L 199.37843308016264 364.10701715761473 M 200.0971889138164 371.07001866928977 L 200.61746452551102 376.1102280159066 M 200.61746452551102 376.1102280159066 L 201.2763720464762 382.00653513460406 M 202.05377733669692 388.9632326998815 L 203.27541422132947 399.895186016746" stroke-linecap="round" stroke-linejoin="round" stroke-miterlimit="10" stroke-width="2.5" stroke-dasharray=""/></g></g><g id="sketch-a6a8c64a"><title>Expression 35</title><path fill="#348543" stroke="none" paint-order="stroke fill markers" d="" fill-opacity="0.4"/><g><path fill="none" stroke="#348543" class="dcg-svg-curve" paint-order="fill stroke markers" d=" M 187.7955192746177 40 L 198.7955192746177 40 M 205.7955192746177 40 L 215.62737831435567 40 M 215.62737831435567 40 L 215.77386178298588 40.450448795272905 M 215.77386178298588 40.450448795272905 L 215.8833841740085 41.13623106332783 M 216.98732479555161 48.048634053902596 L 218.72208862940508 58.91098161052009 M 219.82602925094818 65.82338460109486 L 221.56079308480167 76.68573215771235 M 222.70112017915025 83.59217708804684 L 224.5213495184245 94.44053019588976 M 225.67967727978086 101.34402762815344 L 227.4999066190551 112.19238073599637 M 228.68671804894691 119.09097805869767 L 230.59637525309554 129.92394668980904 M 231.8116116557356 136.81765400051628 L 233.72126885988422 147.65062263162767 M 234.97107199239466 154.53808234499934 L 236.97426488079043 165.354145318738 M 238.24902399158776 172.23709448384443 L 240.25221687998354 183.0531574575831 M 241.5828164598888 189.92550313864695 L 243.6837976724051 200.72299719720763 M 245.02078571673363 207.59412977992807 L 246.53539019532784 215.3780798510968 M 246.53539019532784 215.3780798510968 L 247.15028614914175 218.38593423653748 M 248.55230040242972 225.2440940504801 L 250.75546565759655 236.02120232953277 M 252.15747991088452 242.8793621434754 L 252.68769587779622 245.47299186475436 M 252.68769587779622 245.47299186475436 L 254.44168168758247 253.6394852619037 M 255.91160855425397 260.4834106710996 L 258.2214936304521 271.238150599836 M 259.73247905691136 278.0730345793509 L 262.1537553065943 288.80324526333663 M 263.69456746548343 295.63156115314575 L 264.992307242733 301.3826691585622 M 264.992307242733 301.3826691585622 L 266.16975986177766 306.3492980976444 M 267.78451234774775 313.160507565063 L 270.3219805399864 323.8638367281495 M 271.97499681247746 330.6657428434762 L 274.63503876735524 341.33926975815115 M 276.32779273864105 348.13151415839883 L 277.4434020763 352.60794215981826 M 277.4434020763 352.60794215981826 L 279.0628921237684 358.785851113174 M 280.8379117515244 365.5570626237591 L 283.62722830942676 376.19753785467867 M 285.4823889668299 382.94719725264105 L 288.40636279254994 393.55145946490757 M 290.277908709502 400.2965613285685 L 291.78708406885943 405.5" stroke-linecap="round" stroke-linejoin="round" stroke-miterlimit="10" stroke-width="2.5" stroke-dasharray=""/></g></g><g id="sketch-a6a8c64a"><title>Expression 36</title><path fill="#6042a6" stroke="none" paint-order="stroke fill markers" d="" fill-opacity="0.4"/><g><path fill="none" stroke="#6042a6" class="dcg-svg-curve" paint-order="fill stroke markers" d=" M 251.54601370421915 40 L 262.54601370421915 40 M 269.54601370421915 40 L 279.3754619581907 40 M 279.3754619581907 40 L 279.66840351875885 40.550015578606576 M 279.66840351875885 40.550015578606576 L 279.8699279122907 41.05895816876786 M 282.44701830641515 47.56730704544244 L 286.4967317828965 57.794712423073925 M 289.073822177021 64.3030612997485 L 289.774887358359 66.07357613921226 M 289.774887358359 66.07357613921226 L 293.2190509805444 74.49201898351144 M 295.8696491336559 80.97077885178267 L 300.02784197824326 91.13449714096214 M 300.02784197824326 91.13449714096214 L 300.03507495672903 91.15160396214252 M 302.7611090240053 97.59898624211081 L 307.04487684401084 107.73058696777528 M 309.7709109112871 114.17796924774358 L 310.28079659812755 115.38390720046664 M 310.28079659812755 115.38390720046664 L 314.1610011559829 124.26386524544037 M 316.9638363902256 130.6782330747504 L 320.53375121801184 138.8480842829024 M 320.53375121801184 138.8480842829024 L 321.3917197592496 140.74754474276972 M 324.2732388000877 147.12695286714046 L 328.8013401499761 157.15173706258022 M 331.70381614829466 163.52151889996358 L 336.3584980416301 173.48816008302293 M 339.3205683373891 179.83056810860617 L 341.3326020183485 184.1387503229621 M 341.3326020183485 184.1387503229621 L 344.0482338212413 189.76254720638454 M 347.0921093775473 196.0661034723128 L 351.7320274185168 205.67490117100795 M 351.7320274185168 205.67490117100795 L 351.87927762617295 205.9697592550303 M 355.00673380693553 212.23226816419842 L 359.92130780527674 222.07335359289115 M 363.0697919566842 228.32518107954888 L 368.1184319945097 238.0981659750895 M 371.3312029276714 244.31733818134262 L 372.82381977942157 247.20669488684985 M 372.82381977942157 247.20669488684985 L 376.4754563509426 254.04008264901137 M 379.7746113962168 260.2138639852138 L 383.36971595987393 266.9414621587508 M 383.36971595987393 266.9414621587508 L 385.0013758211697 269.8924832391963 M 388.38850225948573 276.01844230622083 L 393.71112951969667 285.64494941154516 M 397.17847112846573 291.72578513096465 L 402.6417212871993 301.27318779886855 M 406.1539978783218 307.3280432979311 L 411.76010104220705 316.79227106969756 M 415.3276212374068 322.8149614699126 L 415.59328762236737 323.263459670011 M 415.59328762236737 323.263459670011 L 421.07179091950775 332.1959647118435 M 424.7315423520398 338.1630594364209 L 426.43212536338785 340.9357996355278 M 426.43212536338785 340.9357996355278 L 430.58599052540166 347.4753737310556 M 434.33917730309656 353.38414593953814 L 437.4174338846924 358.23035211504936 M 437.4174338846924 358.23035211504936 L 440.30852357256816 362.62313909551347 M 444.15685930730353 368.47038734342965 L 448.54921318628107 375.14422904888715 M 448.54921318628107 375.14422904888715 L 450.2455735719427 377.63122737163565 M 454.19001019850214 383.41408304154965 L 459.6809924878697 391.4642968164794 M 459.6809924878697 391.4642968164794 L 460.4057880124654 392.48935888670167 M 464.44711791031364 398.2049212087097 L 469.6052840478569 405.5" stroke-linecap="round" stroke-linejoin="round" stroke-miterlimit="10" stroke-width="2.5" stroke-dasharray=""/></g></g><g id="sketch-a6a8c64a"><title>L0</title></g><g id="sketch-a6a8c64a"><title>L1</title></g><g id="sketch-a6a8c64a"><title>L2</title></g><g id="sketch-a6a8c64a"><title>L3</title></g><g id="sketch-a6a8c64a"><title>L4</title></g><g id="sketch-a6a8c64a"><title>R1: ${D_{R1}} Days</title><path fill="#000000" stroke="none" class="dcg-svg-point" paint-order="stroke fill markers" d=" M 115.65747621986041 240 A 3.75 3.75 0 1 1 115.65747434486057 239.996250000625 Z"/></g><g id="sketch-a6a8c64a"><title>R2: ${D_{R2}} Days</title><path fill="#fa7e19" stroke="none" class="dcg-svg-point" paint-order="stroke fill markers" d=" M 149.30041893020194 240 A 3.75 3.75 0 1 1 149.3004170552021 239.996250000625 Z"/></g><g id="sketch-a6a8c64a"><title>R3: ${D_{R3}} Days</title><path fill="#2d70b3" stroke="none" class="dcg-svg-point" paint-order="stroke fill markers" d=" M 191.5455192746177 240 A 3.75 3.75 0 1 1 191.54551739961786 239.996250000625 Z"/></g><g id="sketch-a6a8c64a"><title>R4: ${D_{R4}} Days</title><path fill="#348543" stroke="none" class="dcg-svg-point" paint-order="stroke fill markers" d=" M 255.29601370421915 240 A 3.75 3.75 0 1 1 255.2960118292193 239.996250000625 Z"/></g><g id="sketch-a6a8c64a"><title>Rm: ${D_{Rm}} Days</title><path fill="#6042a6" stroke="none" class="dcg-svg-point" paint-order="stroke fill markers" d=" M 372.8099933467848 240 A 3.75 3.75 0 1 1 372.80999147178494 239.996250000625 Z"/></g></g><g id="labels-a6a8c64a"><g transform="rotate(0,0,0) translate(85.5,15)"><g class="dcg-svg-label"><text fill="none" stroke="#FFF" font-family="arial, sans-serif" font-size="15.4px" font-style="normal" font-weight="400" text-decoration="normal" x="0" y="13.93428225402832" text-anchor="start" stroke-linecap="round" stroke-linejoin="round" stroke-miterlimit="2" stroke-width="3" stroke-dasharray="">L0</text><text fill="rgb(0, 0, 0)" stroke="none" font-family="arial, sans-serif" font-size="15.4px" font-style="normal" font-weight="400" text-decoration="normal" x="0" y="13.93428225402832" text-anchor="start">L0</text></g></g><g transform="rotate(0,0,0) translate(115.5,15)"><g class="dcg-svg-label"><text fill="none" stroke="#FFF" font-family="arial, sans-serif" font-size="15.4px" font-style="normal" font-weight="400" text-decoration="normal" x="0" y="13.93428225402832" text-anchor="start" stroke-linecap="round" stroke-linejoin="round" stroke-miterlimit="2" stroke-width="3" stroke-dasharray="">L1</text><text fill="rgb(250, 126, 25)" stroke="none" font-family="arial, sans-serif" font-size="15.4px" font-style="normal" font-weight="400" text-decoration="normal" x="0" y="13.93428225402832" text-anchor="start">L1</text></g></g><g transform="rotate(0,0,0) translate(149.5,15)"><g class="dcg-svg-label"><text fill="none" stroke="#FFF" font-family="arial, sans-serif" font-size="15.4px" font-style="normal" font-weight="400" text-decoration="normal" x="0" y="13.93428225402832" text-anchor="start" stroke-linecap="round" stroke-linejoin="round" stroke-miterlimit="2" stroke-width="3" stroke-dasharray="">L2</text><text fill="rgb(45, 112, 179)" stroke="none" font-family="arial, sans-serif" font-size="15.4px" font-style="normal" font-weight="400" text-decoration="normal" x="0" y="13.93428225402832" text-anchor="start">L2</text></g></g><g transform="rotate(0,0,0) translate(191.5,15)"><g class="dcg-svg-label"><text fill="none" stroke="#FFF" font-family="arial, sans-serif" font-size="15.4px" font-style="normal" font-weight="400" text-decoration="normal" x="0" y="13.93428225402832" text-anchor="start" stroke-linecap="round" stroke-linejoin="round" stroke-miterlimit="2" stroke-width="3" stroke-dasharray="">L3</text><text fill="rgb(52, 133, 67)" stroke="none" font-family="arial, sans-serif" font-size="15.4px" font-style="normal" font-weight="400" text-decoration="normal" x="0" y="13.93428225402832" text-anchor="start">L3</text></g></g><g transform="rotate(0,0,0) translate(255.5,15)"><g class="dcg-svg-label"><text fill="none" stroke="#FFF" font-family="arial, sans-serif" font-size="15.4px" font-style="normal" font-weight="400" text-decoration="normal" x="0" y="13.93428225402832" text-anchor="start" stroke-linecap="round" stroke-linejoin="round" stroke-miterlimit="2" stroke-width="3" stroke-dasharray="">L4</text><text fill="rgb(96, 66, 166)" stroke="none" font-family="arial, sans-serif" font-size="15.4px" font-style="normal" font-weight="400" text-decoration="normal" x="0" y="13.93428225402832" text-anchor="start">L4</text></g></g><g transform="rotate(-57.29577951308232,0,0) translate(-212.4391780966635,217.41730370683794)"><g class="dcg-svg-label"><text fill="none" stroke="#FFF" font-family="arial, sans-serif" font-size="12.32px" font-style="normal" font-weight="400" text-decoration="normal" x="0" y="10.482836684265136" text-anchor="start" stroke-linecap="round" stroke-linejoin="round" stroke-miterlimit="2" stroke-width="3" stroke-dasharray="">R1: 8 Days</text><text fill="rgb(0, 0, 0)" stroke="none" font-family="arial, sans-serif" font-size="12.32px" font-style="normal" font-weight="400" text-decoration="normal" x="0" y="10.482836684265136" text-anchor="start">R1: 8 Days</text></g></g><g transform="rotate(-57.29577951308232,0,0) translate(-194.06889969714675,246.0273171903064)"><g class="dcg-svg-label"><text fill="none" stroke="#FFF" font-family="arial, sans-serif" font-size="12.32px" font-style="normal" font-weight="400" text-decoration="normal" x="0" y="10.482836684265136" text-anchor="start" stroke-linecap="round" stroke-linejoin="round" stroke-miterlimit="2" stroke-width="3" stroke-dasharray="">R2: 8 Days</text><text fill="rgb(250, 126, 25)" stroke="none" font-family="arial, sans-serif" font-size="12.32px" font-style="normal" font-weight="400" text-decoration="normal" x="0" y="10.482836684265136" text-anchor="start">R2: 8 Days</text></g></g><g transform="rotate(-57.29577951308232,0,0) translate(-177.37620285068488,281.3690985522381)"><g class="dcg-svg-label"><text fill="none" stroke="#FFF" font-family="arial, sans-serif" font-size="12.32px" font-style="normal" font-weight="400" text-decoration="normal" x="0" y="10.482836684265136" text-anchor="start" stroke-linecap="round" stroke-linejoin="round" stroke-miterlimit="2" stroke-width="3" stroke-dasharray="">R3: 11 Days</text><text fill="rgb(45, 112, 179)" stroke="none" font-family="arial, sans-serif" font-size="12.32px" font-style="normal" font-weight="400" text-decoration="normal" x="0" y="10.482836684265136" text-anchor="start">R3: 11 Days</text></g></g><g transform="rotate(-57.29577951308232,0,0) translate(-143.79685527512393,335.2232415799434)"><g class="dcg-svg-label"><text fill="rgb(52, 133, 67)" stroke="none" font-family="arial, sans-serif" font-size="12.32px" font-style="normal" font-weight="400" text-decoration="normal" x="0" y="10.482836684265136" text-anchor="start">R4: 16 Days</text></g></g><g transform="rotate(-57.29577951308232,0,0) translate(-83.58148548855158,433.6753468024674)"><g class="dcg-svg-label"><text fill="none" stroke="#FFF" font-family="arial, sans-serif" font-size="12.32px" font-style="normal" font-weight="400" text-decoration="normal" x="0" y="10.482836684265136" text-anchor="start" stroke-linecap="round" stroke-linejoin="round" stroke-miterlimit="2" stroke-width="3" stroke-dasharray="">Rm: 29 Days</text><text fill="rgb(96, 66, 166)" stroke="none" font-family="arial, sans-serif" font-size="12.32px" font-style="normal" font-weight="400" text-decoration="normal" x="0" y="10.482836684265136" text-anchor="start">Rm: 29 Days</text></g></g></g><g id="labels-a6a8c64a"/></g></svg>